<?xml version="1.0" encoding="UTF-8"?>
<svg version="1.1" xmlns="http://www.w3.org/2000/svg" width="1400" height="802">
<path d="M0 0 C462 0 924 0 1400 0 C1400 264.66 1400 529.32 1400 802 C938 802 476 802 0 802 C0 537.34 0 272.68 0 0 Z " fill="#081030" transform="translate(0,0)"/>
<path d="M0 0 C1.17695623 -0.0061849 1.17695623 -0.0061849 2.37768936 -0.01249474 C5.00963394 -0.02143232 7.64058502 -0.00175606 10.27246094 0.01777649 C12.15816366 0.01726777 14.04386661 0.0150126 15.92956543 0.01113892 C21.05354248 0.00571238 26.17715894 0.02515079 31.30107117 0.04923987 C36.65903617 0.07050963 42.01699949 0.06994006 47.375 0.07192993 C56.37343566 0.078381 65.37173556 0.09964098 74.37011719 0.13105774 C85.92491535 0.17134644 97.47962499 0.18874462 109.03448486 0.19836712 C118.96157484 0.2066667 128.88864601 0.2239052 138.8157196 0.24340463 C142.00999882 0.24947195 145.20427875 0.25461359 148.39855957 0.25975609 C153.41523057 0.26853665 158.43185777 0.28284275 163.44850159 0.30146599 C165.29158548 0.30758995 167.13467581 0.31203928 168.97776794 0.31470871 C171.48977767 0.31868867 174.00168831 0.32880541 176.51367188 0.34057617 C177.2463541 0.34039181 177.97903633 0.34020745 178.73392105 0.3400175 C182.04954264 0.361937 185.08611308 0.46126771 188.25683594 1.48774719 C189.40329224 5.60719522 189.40191295 9.58285633 189.39727783 13.831604 C189.40024895 14.68087277 189.40322008 15.53014153 189.40628123 16.4051457 C189.41496417 19.25552477 189.41647613 22.10586181 189.41796875 24.95625305 C189.42259711 26.99796641 189.42762179 29.0396789 189.43301392 31.08139038 C189.44613586 36.6308987 189.45258217 42.18039492 189.45702457 47.72991633 C189.45995487 51.19541954 189.46405954 54.66091943 189.46852875 58.12642097 C189.48220147 68.96478381 189.49186994 79.80313909 189.49573064 90.64150995 C189.50021474 103.16164966 189.51777997 115.68168038 189.54673123 128.20178694 C189.56832468 137.87490404 189.57843362 147.54799042 189.57977176 157.22113138 C189.58082121 163.00099886 189.58675922 168.78076385 189.60459137 174.560606 C189.62103223 179.99508603 189.62324696 185.42938608 189.61445236 190.86388206 C189.61367992 192.85974865 189.61805185 194.85562475 189.62791061 196.85146713 C189.64056942 199.57349644 189.63478649 202.29488238 189.62432861 205.01690674 C189.63641322 206.20494358 189.63641322 206.20494358 189.64874196 207.41698116 C189.60800233 211.94255421 189.08496498 214.89868508 186.25683594 218.48774719 C183.22713194 220.00259919 180.08499382 219.63940482 176.76091003 219.64164734 C175.97868696 219.64602959 175.19646389 219.65041185 174.39053708 219.6549269 C171.75506597 219.66833994 169.1196283 219.67449934 166.48413086 219.68061829 C164.60034533 219.68851722 162.71656133 219.69678604 160.83277893 219.70539856 C154.63430227 219.73164062 148.43581876 219.74692735 142.23730469 219.76118469 C140.10581266 219.76654328 137.97432068 219.77192078 135.84282875 219.77731705 C126.97874506 219.79894805 118.11466322 219.81768614 109.25055981 219.82893944 C96.53454862 219.84518752 83.81884259 219.87838373 71.10294646 219.93534029 C62.16871925 219.97399808 53.2345738 219.99356714 44.30026513 219.99886 C38.96069585 220.00251887 33.62145186 220.01459716 28.28197289 220.04696274 C23.25945252 220.07697046 18.23745553 220.08338128 13.21486473 220.07157898 C11.37056531 220.07135764 9.52624212 220.0797125 7.68202591 220.09723282 C5.16528733 220.11984247 2.65045979 220.11166902 0.13371277 220.0957489 C-0.59742086 220.10963099 -1.32855448 220.12351308 -2.08184367 220.13781583 C-5.90361372 220.0781826 -7.62939795 219.57485065 -10.69746876 217.22582436 C-12.76670907 214.45623319 -13.3662749 213.43636131 -13.35116577 210.07051086 C-13.35948803 209.21377997 -13.36781029 208.35704908 -13.37638474 207.47435665 C-13.35997562 206.54420522 -13.34356651 205.61405378 -13.32666016 204.65571594 C-13.32896259 203.66141603 -13.33126503 202.66711611 -13.33363724 201.64268589 C-13.33517792 198.31969189 -13.30088533 194.99805011 -13.26660156 191.67524719 C-13.26029151 189.3109076 -13.25613767 186.9465614 -13.2539978 184.58221436 C-13.24165305 178.20657725 -13.19787936 171.83151504 -13.14720154 165.45608139 C-13.09882185 158.84439198 -13.07560823 152.23260936 -13.04882812 145.62080383 C-12.99923553 134.1683297 -12.92425825 122.71616333 -12.83842564 111.2639097 C-12.75933814 100.64145194 -12.70972422 90.01915425 -12.67653847 79.39646339 C-12.64543435 69.59789992 -12.59326911 59.79957753 -12.52960205 50.00117493 C-12.50367639 45.95527242 -12.48558459 41.90944736 -12.47381592 37.86347961 C-12.45909375 33.14572433 -12.42496862 28.42851273 -12.3752327 23.71100044 C-12.36029479 21.99814983 -12.35209687 20.285225 -12.35117722 18.57230949 C-12.34884789 16.25502587 -12.32217724 13.93928668 -12.2890625 11.62226868 C-12.28018005 10.33191208 -12.27129761 9.04155548 -12.262146 7.71209717 C-11.10514892 0.52386334 -6.44284183 -0.09645807 0 0 Z " fill="#113271" transform="translate(1079.7431640625,274.5122528076172)"/>
<path d="M0 0 C3.91111706 1.63431048 7.40423752 3.76613256 11 6 C12.83277398 7.08691375 14.67230924 8.16183655 16.51196289 9.23706055 C18.65649306 10.49252606 20.79499533 11.75789725 22.93359375 13.0234375 C27.84056975 15.91691271 32.77582578 18.76022293 37.71411133 21.59985352 C41.08863471 23.54157519 44.45865927 25.49092425 47.828125 27.44140625 C51.49050357 29.56029001 55.16268055 31.65649282 58.859375 33.71484375 C60.198076 34.47628244 61.53663321 35.23797402 62.875 36 C63.98617187 36.61875 65.09734375 37.2375 66.2421875 37.875 C70.85536909 41.42963284 72.76752455 45.22578237 73.50793457 50.8764801 C73.53139094 52.29579982 73.53347838 53.71558529 73.51757812 55.13500977 C73.5245874 55.91643341 73.53159668 56.69785706 73.53881836 57.50296021 C73.55631332 60.06614528 73.54480772 62.62821148 73.53125 65.19140625 C73.5339471 66.98306997 73.53783134 68.77473226 73.54284668 70.56639099 C73.54872996 74.31287638 73.54021569 78.05897916 73.52148438 81.80541992 C73.49867885 86.59946626 73.51183523 91.39261756 73.53577423 96.1866312 C73.55024988 99.88334358 73.54561843 103.5798448 73.53526306 107.27656364 C73.53260151 109.04394576 73.53584538 110.81134727 73.54518127 112.57870674 C73.55537814 115.05111388 73.53980421 117.52208425 73.51757812 119.99438477 C73.52567505 120.71922562 73.53377197 121.44406647 73.54211426 122.19087219 C73.4582828 127.24246625 72.13832972 130.0882 69 134 C67.07568359 135.64575195 67.07568359 135.64575195 65.0234375 136.92578125 C64.23420898 137.42158691 63.44498047 137.91739258 62.63183594 138.42822266 C57.65765675 141.39888737 52.6572593 144.31622642 47.625 147.1875 C45.89018829 148.18258075 44.15537772 149.17766356 42.42077637 150.17311096 C40.69604869 151.16248951 38.97058629 152.15058692 37.24511719 153.13867188 C33.52533586 155.27225695 29.81328984 157.41881681 26.10498047 159.57226562 C24.55135932 160.47293424 22.99573045 161.37014965 21.43798828 162.26367188 C17.95195931 164.26526334 14.50211694 166.29663294 11.109375 168.453125 C10.18946777 169.02172241 10.18946777 169.02172241 9.25097656 169.60180664 C7.6464092 170.59671895 6.05674926 171.61556974 4.46875 172.63671875 C-1.37421904 174.93311086 -6.87805693 175.2207142 -12.78662109 172.91040039 C-15.58909402 171.44825146 -18.25955099 169.86630101 -20.9375 168.1875 C-21.85595703 167.64029297 -22.77441406 167.09308594 -23.72070312 166.52929688 C-27.62660435 164.18234239 -31.38638312 161.78014117 -35 159 C-34.625 157.0625 -34.625 157.0625 -34 155 C-33.34 154.67 -32.68 154.34 -32 154 C-32.66 153.01 -33.32 152.02 -34 151 C-37.35503476 150.63441883 -37.35503476 150.63441883 -41.125 150.8125 C-42.40632813 150.83957031 -43.68765625 150.86664063 -45.0078125 150.89453125 C-45.99523437 150.92933594 -46.98265625 150.96414063 -48 151 C-48 150.34 -48 149.68 -48 149 C-49.01320312 148.91234375 -50.02640625 148.8246875 -51.0703125 148.734375 C-55.25977724 147.95145316 -58.30616134 146.45056658 -61.875 144.25 C-63.09851453 143.51878814 -64.32247323 142.78831897 -65.546875 142.05859375 C-66.13533203 141.70394043 -66.72378906 141.34928711 -67.33007812 140.98388672 C-70.19577264 139.29547314 -73.16330646 137.79708877 -76.1328125 136.30078125 C-78.76932728 134.46404606 -80.23199724 132.70663823 -82 130 C-82.38224102 127.13506007 -82.53809913 124.66002295 -82.50170898 121.80078125 C-82.50711197 120.98878265 -82.51251495 120.17678406 -82.51808167 119.34017944 C-82.5305591 116.66391217 -82.51408495 113.98872277 -82.49609375 111.3125 C-82.49624876 109.44832299 -82.4977381 107.58414566 -82.50050354 105.7199707 C-82.50188709 101.81609828 -82.48933684 97.91259344 -82.46655273 94.00878906 C-82.43816827 89.00844289 -82.44090603 84.0087074 -82.45364285 79.00831604 C-82.46060271 75.1598185 -82.45280721 71.31146174 -82.44038582 67.46298218 C-82.43587432 65.61942078 -82.43553189 63.77584425 -82.43945122 61.93228149 C-82.44236646 59.35427956 -82.42584187 56.77711481 -82.40405273 54.19921875 C-82.40855438 53.43958832 -82.41305603 52.67995789 -82.41769409 51.89730835 C-82.35492083 47.42007828 -81.72785944 44.57873526 -79 41 C-77.17773438 39.45410156 -77.17773438 39.45410156 -75.09375 38.140625 C-73.89685547 37.38362305 -73.89685547 37.38362305 -72.67578125 36.61132812 C-67.65587694 33.58839305 -62.59057942 30.65212696 -57.5 27.75 C-55.17759293 26.41934896 -52.85645133 25.08649591 -50.53515625 23.75390625 C-48.85317139 22.78928467 -48.85317139 22.78928467 -47.13720703 21.80517578 C-43.05614535 19.45689796 -38.99372843 17.07832482 -34.9375 14.6875 C-34.2767749 14.30190918 -33.6160498 13.91631836 -32.93530273 13.51904297 C-29.42651132 11.46505279 -25.96730624 9.35408447 -22.5390625 7.16796875 C-7.4831364 -2.32015473 -7.4831364 -2.32015473 0 0 Z " fill="#09122D" transform="translate(240,304)"/>
<path d="M0 0 C22.11 0 44.22 0 67 0 C68.98 7.59 70.96 15.18 73 23 C74.3756421 28.07610877 74.3756421 28.07610877 75.76245117 33.14916992 C78.51988635 43.19020561 81.0442503 53.24963292 83.29052734 63.41699219 C84.47254609 68.75138256 85.75084867 74.04096533 87.1875 79.3125 C91.3310442 94.54463818 91.3310442 94.54463818 91 101 C91.66 101 92.32 101 93 101 C93.07347656 99.65808594 93.07347656 99.65808594 93.1484375 98.2890625 C93.22320313 97.07992187 93.29796875 95.87078125 93.375 94.625 C93.47941406 92.84996094 93.47941406 92.84996094 93.5859375 91.0390625 C94.2702122 82.97396127 96.39665014 75.0768128 98.375 67.25 C98.70262329 65.94530762 98.70262329 65.94530762 99.03686523 64.61425781 C100.58364822 58.50826858 102.27579929 52.45448115 104.03515625 46.40625 C106.93648988 36.16348514 109.34691826 25.79802864 111.51757812 15.37792969 C112.66383548 10.02790878 114.24234367 5.272969 116 0 C137.78 0 159.56 0 182 0 C182 4.62 182 9.24 182 14 C179.62561751 14.3383344 177.25065041 14.67079002 174.875 15 C174.20984375 15.09539062 173.5446875 15.19078125 172.859375 15.2890625 C168.87371019 15.83611453 165.02140062 16.10022182 161 16 C161.30325195 17.27931396 161.60650391 18.55862793 161.91894531 19.87670898 C163.02904348 24.88319313 163.70527558 29.88245088 164.296875 34.97265625 C164.53272712 36.92514839 164.76873634 38.87762156 165.00488281 40.83007812 C165.1262561 41.84658447 165.24762939 42.86309082 165.37268066 43.91040039 C167.60892504 62.59183106 170.10760505 81.21315813 172.99511719 99.80493164 C173.23132999 101.32825518 173.46733816 102.85161047 173.703125 104.375 C173.81460876 105.09477524 173.92609253 105.81455048 174.04095459 106.55613708 C175.18182195 114.01967355 176.0970884 121.50413009 177 129 C181.95 129.66 186.9 130.32 192 131 C192.125 142.75 192.125 142.75 191 145 C169.55 145 148.1 145 126 145 C126 140.71 126 136.42 126 132 C131.57067277 130.40837921 136.21101581 129.79325056 142 130 C141.86722656 129.1028125 141.73445312 128.205625 141.59765625 127.28125 C140.42128607 118.96937894 139.65249708 110.74846023 139.24609375 102.36328125 C139.12578076 99.24078901 139.12578076 99.24078901 138.52294922 97.25024414 C137.78481422 94.07405821 137.61126679 90.87686286 137.38671875 87.6328125 C137.27416947 86.10903146 137.16136467 84.58526928 137.04833984 83.06152344 C136.98974792 82.25710815 136.93115601 81.45269287 136.87078857 80.62390137 C135.77181711 65.6408545 134.44472847 50.69098882 132.875 35.75 C132.78882416 34.91664124 132.70264832 34.08328247 132.61386108 33.22467041 C132.36968101 30.8732096 132.11968248 28.52245591 131.8671875 26.171875 C131.79437057 25.47156158 131.72155365 24.77124817 131.64653015 24.04971313 C131.26521364 20.40616811 131.26521364 20.40616811 130 17 C128.32303578 23.2796958 126.88465049 29.52548311 125.8125 35.9375 C124.20109569 45.21998169 121.53127149 54.22124026 118.98046875 63.28027344 C117.12273166 69.89032138 115.32347378 76.48933543 113.8125 83.1875 C112.41036961 89.38415842 110.80042746 95.49593732 109.07446289 101.60864258 C107.07755196 108.682652 105.15826657 115.77660056 103.25 122.875 C102.79113403 124.57934204 102.79113403 124.57934204 102.32299805 126.31811523 C101.18837871 130.53973987 100.06025976 134.75896096 99 139 C90.42 139 81.84 139 73 139 C69.63152346 130.01739589 69.63152346 130.01739589 68.3515625 125.27734375 C68.07086914 124.2514917 67.79017578 123.22563965 67.50097656 122.16870117 C67.2119043 121.10240479 66.92283203 120.0361084 66.625 118.9375 C64.36614899 110.71779217 62.00274331 102.60629021 59.140625 94.57421875 C58.19002205 91.59544582 57.40546295 88.66388937 56.66796875 85.62890625 C55.45905279 80.69409445 54.10672635 75.82200536 52.66015625 70.953125 C52.45021027 70.24646194 52.24026428 69.53979889 52.0239563 68.8117218 C51.15571599 65.89823723 50.28341087 62.98598417 49.40942383 60.07421875 C46.67210952 50.93955093 44.12375046 41.7945506 41.86791992 32.52832031 C40.67036341 27.65994149 39.35018859 22.82794706 38 18 C36.12135491 19.87864509 36.55958681 23.07253281 36.3581543 25.59277344 C36.30168795 26.28315453 36.2452216 26.97353561 36.18704414 27.68483734 C35.99932472 29.99269275 35.8180599 32.30101034 35.63671875 34.609375 C35.50560735 36.23609791 35.37406411 37.86278606 35.24211121 39.48944092 C34.96465939 42.91831052 34.68979464 46.34737359 34.41693115 49.77661133 C34.01528122 54.81967145 33.60576788 59.86206645 33.19384766 64.90429688 C32.46266228 73.8610377 31.73688846 82.81820903 31.01263428 91.7755127 C30.67084764 96.001409 30.3285618 100.22726488 29.98632812 104.453125 C29.3237526 112.635379 28.66173933 120.81767833 28 129 C34.27 129.66 40.54 130.32 47 131 C47 135.62 47 140.24 47 145 C28.19 145 9.38 145 -10 145 C-10 132 -10 132 -9 131 C-6.30764224 130.76321284 -3.63501844 130.57801975 -0.9375 130.4375 C-0.17888672 130.39431641 0.57972656 130.35113281 1.36132812 130.30664062 C3.24065438 130.20026367 5.12030244 130.09960066 7 130 C7.05238327 129.08436783 7.10476654 128.16873566 7.15873718 127.22535706 C7.70626635 118.29788567 8.5707095 109.4647222 9.70703125 100.58984375 C9.87572893 99.24829906 10.04406969 97.90670944 10.21208191 96.56507874 C10.56332648 93.76724979 10.91732465 90.96978974 11.27368164 88.17260742 C11.71762323 84.6879316 12.15698702 81.20270091 12.59451485 77.71721458 C14.33110602 63.88542338 16.10623614 50.05865893 17.93640709 36.23892403 C18.1927263 34.30294374 18.44779694 32.36679827 18.70283508 30.4306488 C18.85850449 29.26316605 19.01417389 28.09568329 19.17456055 26.89282227 C19.31024948 25.87180923 19.44593842 24.8507962 19.58573914 23.79884338 C19.97390244 21.17632122 20.45437416 18.59385327 21 16 C19.48019531 15.90912109 19.48019531 15.90912109 17.9296875 15.81640625 C16.57811486 15.73193296 15.22655291 15.64728843 13.875 15.5625 C13.20984375 15.52318359 12.5446875 15.48386719 11.859375 15.44335938 C7.81301962 15.18550339 4.02253146 14.67042191 0 14 C0 9.38 0 4.76 0 0 Z " fill="#224A93" transform="translate(610,321)"/>
<path d="M0 0 C6.02746743 4.01831162 10.26595543 9.5050918 11.71875 16.69921875 C13.01482066 27.30179681 11.99106832 35.81935375 5.44140625 44.40234375 C0.34774732 50.04816083 -6.34217285 53.54113174 -13.89453125 54.28515625 C-20.35064168 54.4719368 -25.16772494 53.76265661 -31 51 C-31.845625 50.62875 -32.69125 50.2575 -33.5625 49.875 C-39.92670064 44.97946104 -42.80684949 39.67602678 -45 32 C-56.55 32 -68.1 32 -80 32 C-80 65.66 -80 99.32 -80 134 C-68.45 134 -56.9 134 -45 134 C-44.67 132.35 -44.34 130.7 -44 129 C-40.03622117 120.86009705 -34.15090572 116.51822057 -26.1875 112.625 C-16.28273068 110.68288837 -7.87454278 111.77343603 0.625 117.125 C4.80959366 120.27541491 7.4076491 124.51354752 10 129 C10.37898437 129.61488281 10.75796875 130.22976563 11.1484375 130.86328125 C13.99909629 138.01608107 12.48118662 147.79384233 9.96484375 154.890625 C6.48002841 162.50924963 -0.55250021 166.87293488 -7.875 170.375 C-17.42622023 172.28524405 -26.33079138 171.13520407 -34.625 165.9375 C-39.04064896 162.54561977 -42.38837684 157.88190955 -45 153 C-45 151.68 -45 150.36 -45 149 C-45.58215775 149.01110306 -46.16431549 149.02220612 -46.76411438 149.03364563 C-52.81451092 149.14412635 -58.8646218 149.21961973 -64.91577148 149.2746582 C-67.17500442 149.29982755 -69.43415574 149.33396593 -71.69311523 149.37719727 C-74.93754182 149.4377409 -78.18089358 149.46618557 -81.42578125 149.48828125 C-82.94465691 149.52699089 -82.94465691 149.52699089 -84.49421692 149.56648254 C-85.90534004 149.56704903 -85.90534004 149.56704903 -87.3449707 149.56762695 C-88.17325882 149.57873001 -89.00154694 149.58983307 -89.85493469 149.60127258 C-92 149 -92 149 -93.61025715 146.78779221 C-95.09353977 143.81236137 -95.37676616 142.08638889 -95.38095093 138.79405212 C-95.3894104 137.76643265 -95.39786987 136.73881317 -95.40658569 135.68005371 C-95.400513 134.56352417 -95.39444031 133.44699463 -95.38818359 132.29663086 C-95.39344055 131.11239029 -95.39869751 129.92814972 -95.40411377 128.70802307 C-95.41504149 125.46835967 -95.41249975 122.22906505 -95.40297651 118.9894073 C-95.3953686 115.59600358 -95.4024285 112.20262407 -95.40713501 108.80921936 C-95.41258854 103.11227002 -95.40541082 97.41543746 -95.39111328 91.71850586 C-95.3747796 85.13426646 -95.38008192 78.55030565 -95.3965925 71.96607298 C-95.41020957 66.30903202 -95.41212621 60.65207488 -95.40427649 54.99502283 C-95.39960216 51.6179676 -95.39896857 48.2410433 -95.40888596 44.86399651 C-95.41648678 41.10046293 -95.40491486 37.33746797 -95.38818359 33.57397461 C-95.39425629 32.45542084 -95.40032898 31.33686707 -95.40658569 30.18441772 C-95.39812622 29.15961807 -95.38966675 28.13481842 -95.38095093 27.07896423 C-95.37981985 26.18947555 -95.37868877 25.29998686 -95.37752342 24.38354397 C-94.91705634 21.47632423 -94.01939966 20.11817222 -92 18 C-89.19462697 17.06487566 -87.51834636 16.87817093 -84.62036133 16.88647461 C-83.29933159 16.88658791 -83.29933159 16.88658791 -81.95161438 16.88670349 C-81.00465195 16.89186478 -80.05768951 16.89702606 -79.08203125 16.90234375 C-78.10965012 16.9037587 -77.13726898 16.90517365 -76.13542175 16.90663147 C-73.02774996 16.91223183 -69.92015004 16.92478438 -66.8125 16.9375 C-64.70638125 16.94251495 -62.60026137 16.94707787 -60.49414062 16.95117188 C-55.32939936 16.96220138 -50.16471187 16.97946625 -45 17 C-44.87705566 16.06881348 -44.75411133 15.13762695 -44.62744141 14.17822266 C-43.33961174 7.65488935 -37.10748838 2.33645743 -31.921875 -1.5625 C-21.65639162 -7.63252496 -9.71777075 -6.30834649 0 0 Z " fill="#2E3D63" transform="translate(935,309)"/>
<path d="M0 0 C5.29693626 3.49680558 9.43238764 8.15483639 12 14 C12 15.32 12 16.64 12 18 C13.30670654 17.98428955 14.61341309 17.9685791 15.9597168 17.95239258 C20.81447164 17.8980328 25.66919964 17.86362774 30.52416992 17.83520508 C32.62415086 17.82013228 34.7241004 17.79967059 36.82397461 17.77368164 C39.84496824 17.73723246 42.86554511 17.72025841 45.88671875 17.70703125 C46.82335861 17.69154739 47.75999847 17.67606354 48.72502136 17.66011047 C53.65739665 17.6588412 56.98521253 17.78847467 61 21 C62.6451319 22.6451319 62.12953556 24.54031835 62.13371277 26.80758667 C62.14011024 28.3681781 62.14011024 28.3681781 62.14663696 29.96029663 C62.14595718 31.68707138 62.14595718 31.68707138 62.14526367 33.44873047 C62.14862228 34.65350037 62.1519809 35.85827026 62.15544128 37.09954834 C62.16333746 40.41365363 62.16662028 43.72769628 62.16725707 47.0418067 C62.1682047 49.8052619 62.17188139 52.56871105 62.17542917 55.33216393 C62.18358183 61.85116577 62.1860127 68.3701538 62.18530273 74.88916016 C62.18470204 81.61982798 62.19525025 88.35041562 62.2110464 95.08106315 C62.22411229 100.85348542 62.22948702 106.62588146 62.22884732 112.39831841 C62.22859201 115.84860111 62.23146128 119.29881264 62.24202538 122.74908066 C62.25348417 126.59691259 62.24896536 130.44463423 62.24291992 134.29248047 C62.24853943 135.43961517 62.25415894 136.58674988 62.25994873 137.76864624 C62.25575424 138.81468018 62.25155975 139.86071411 62.24723816 140.93844604 C62.24778293 141.84880049 62.24832769 142.75915493 62.24888897 143.69709587 C62 146 62 146 60 149 C57.16987873 149.94337376 55.45700082 150.12172829 52.52856445 150.11352539 C51.17750359 150.11341209 51.17750359 150.11341209 49.79914856 150.11329651 C48.83031235 150.10813522 47.86147614 150.10297394 46.86328125 150.09765625 C45.37141548 150.09553383 45.37141548 150.09553383 43.84941101 150.09336853 C40.67041018 150.08776761 37.49147957 150.07521496 34.3125 150.0625 C32.15820414 150.05748512 30.00390718 150.05292219 27.84960938 150.04882812 C22.56638226 150.03779788 17.28319615 150.02105886 12 150 C11.85691406 150.94101562 11.71382813 151.88203125 11.56640625 152.8515625 C11.06040338 155.66424051 10.41164009 157.55315717 9 160 C8.34 160 7.68 160 7 160 C7 160.66 7 161.32 7 162 C6.34 162 5.68 162 5 162 C4.77054687 162.60457031 4.54109375 163.20914063 4.3046875 163.83203125 C2.63303562 166.60977614 1.03778998 167.31753795 -1.875 168.6875 C-2.73867188 169.10386719 -3.60234375 169.52023437 -4.4921875 169.94921875 C-13.05006388 173.53499561 -21.54382377 172.4471933 -30 169 C-36.83873405 165.7388733 -40.64138109 159.60338633 -44 153 C-45.95545354 145.8637184 -46.29777711 136.85498948 -43.22265625 130.00390625 C-38.11591503 121.6340716 -31.56786706 115.57298047 -22 113 C-13.88564425 111.83329859 -7.22937174 113.25375711 0 117 C0.84046875 117.42796875 1.6809375 117.8559375 2.546875 118.296875 C5.48675323 120.33793696 6.92565668 122.40786268 8.8125 125.4375 C9.41707031 126.38496094 10.02164063 127.33242188 10.64453125 128.30859375 C12 131 12 131 12 135 C23.88 135 35.76 135 48 135 C48 101.34 48 67.68 48 33 C36.12 33 24.24 33 12 33 C11.67 34.98 11.34 36.96 11 39 C6.60823347 46.47689179 0.52364493 51.62613601 -7.671875 54.45703125 C-16.16103501 56.43688568 -24.48867942 55.43909934 -32 51 C-38.33785074 45.97594557 -42.77100003 39.79675735 -45 32 C-46.00731307 22.66478466 -44.98090017 15.39783074 -39.38671875 7.8125 C-29.08252794 -4.61650178 -14.34790445 -8.02087714 0 0 Z " fill="#2E3D64" transform="translate(500,308)"/>
<path d="M0 0 C3.91111706 1.63431048 7.40423752 3.76613256 11 6 C12.83277398 7.08691375 14.67230924 8.16183655 16.51196289 9.23706055 C18.65649306 10.49252606 20.79499533 11.75789725 22.93359375 13.0234375 C27.84056975 15.91691271 32.77582578 18.76022293 37.71411133 21.59985352 C41.08863471 23.54157519 44.45865927 25.49092425 47.828125 27.44140625 C51.49050357 29.56029001 55.16268055 31.65649282 58.859375 33.71484375 C60.198076 34.47628244 61.53663321 35.23797402 62.875 36 C63.98617187 36.61875 65.09734375 37.2375 66.2421875 37.875 C70.85536909 41.42963284 72.76752455 45.22578237 73.50793457 50.8764801 C73.53139094 52.29579982 73.53347838 53.71558529 73.51757812 55.13500977 C73.5245874 55.91643341 73.53159668 56.69785706 73.53881836 57.50296021 C73.55631332 60.06614528 73.54480772 62.62821148 73.53125 65.19140625 C73.5339471 66.98306997 73.53783134 68.77473226 73.54284668 70.56639099 C73.54872996 74.31287638 73.54021569 78.05897916 73.52148438 81.80541992 C73.49867885 86.59946626 73.51183523 91.39261756 73.53577423 96.1866312 C73.55024988 99.88334358 73.54561843 103.5798448 73.53526306 107.27656364 C73.53260151 109.04394576 73.53584538 110.81134727 73.54518127 112.57870674 C73.55537814 115.05111388 73.53980421 117.52208425 73.51757812 119.99438477 C73.52567505 120.71922562 73.53377197 121.44406647 73.54211426 122.19087219 C73.4582828 127.24246625 72.13832972 130.0882 69 134 C67.07568359 135.64575195 67.07568359 135.64575195 65.0234375 136.92578125 C64.23420898 137.42158691 63.44498047 137.91739258 62.63183594 138.42822266 C57.65765675 141.39888737 52.6572593 144.31622642 47.625 147.1875 C45.89018829 148.18258075 44.15537772 149.17766356 42.42077637 150.17311096 C40.69604869 151.16248951 38.97058629 152.15058692 37.24511719 153.13867188 C33.52533586 155.27225695 29.81328984 157.41881681 26.10498047 159.57226562 C24.55135932 160.47293424 22.99573045 161.37014965 21.43798828 162.26367188 C17.95195931 164.26526334 14.50211694 166.29663294 11.109375 168.453125 C10.18946777 169.02172241 10.18946777 169.02172241 9.25097656 169.60180664 C7.6464092 170.59671895 6.05674926 171.61556974 4.46875 172.63671875 C-1.37421904 174.93311086 -6.87805693 175.2207142 -12.78662109 172.91040039 C-15.58909402 171.44825146 -18.25955099 169.86630101 -20.9375 168.1875 C-21.85595703 167.64029297 -22.77441406 167.09308594 -23.72070312 166.52929688 C-31.88623923 161.62283855 -31.88623923 161.62283855 -35 159 C-35 158.34 -35 157.68 -35 157 C-33.4447088 156.29634398 -31.88035173 155.61270622 -30.3125 154.9375 C-29.44238281 154.55464844 -28.57226562 154.17179688 -27.67578125 153.77734375 C-23.3470742 152.51980696 -20.9379138 153.49715002 -17.02734375 155.59375 C-16.00769531 156.2228125 -14.98804688 156.851875 -13.9375 157.5 C-9.26123861 160.53782489 -9.26123861 160.53782489 -4 162 C-1.44533798 161.02370966 -1.44533798 161.02370966 1.19140625 159.421875 C2.71761597 158.5544165 2.71761597 158.5544165 4.2746582 157.66943359 C5.359646 157.03602051 6.44463379 156.40260742 7.5625 155.75 C8.68422607 155.10756348 9.80595215 154.46512695 10.96166992 153.80322266 C14.31423207 151.87976621 17.65731381 149.94055272 21 148 C23.41216429 146.61652726 25.82618466 145.23637844 28.24121094 143.85791016 C29.76654851 142.97821965 31.28278725 142.08187633 32.77711487 141.15048218 C36.85378726 138.65592226 40.67451425 136.68891291 45.22827148 135.21240234 C51.29320023 132.96080018 56.28421217 130.46185638 60 125 C63.24166927 113.42679682 61.97378767 100.81675258 61.37329102 88.9453125 C61.16729579 84.44197135 61.07706967 79.93639829 60.9765625 75.4296875 C60.76313026 66.61362155 60.42270233 57.80850318 60 49 C59.28849792 48.60273712 58.57699585 48.20547424 57.84393311 47.7961731 C55.16205324 46.29819326 52.48063101 44.79939816 49.79949951 43.30007935 C48.08526343 42.34177272 46.37051832 41.38437686 44.65576172 40.42700195 C38.48154242 36.97351006 32.33538267 33.48279857 26.25 29.875 C24.9271234 29.09368215 23.60421145 28.31242416 22.28125 27.53125 C19.9606538 26.16019029 17.64142173 24.78694693 15.32421875 23.41015625 C12.47238804 21.72090495 9.61203312 20.04689534 6.75 18.375 C5.85571289 17.84116699 4.96142578 17.30733398 4.04003906 16.75732422 C3.19666992 16.2676416 2.35330078 15.77795898 1.484375 15.2734375 C0.73897461 14.83435059 -0.00642578 14.39526367 -0.77441406 13.94287109 C-3.41138372 12.82571699 -5.16040161 12.68600458 -8 13 C-9.84014365 13.7964556 -9.84014365 13.7964556 -11.51953125 15.04296875 C-14.95043697 17.32782819 -18.43304812 19.44070568 -22.01171875 21.48828125 C-23.09324219 22.10848145 -24.17476562 22.72868164 -25.2890625 23.36767578 C-26.97128906 24.33036377 -26.97128906 24.33036377 -28.6875 25.3125 C-36.66833728 29.88891056 -44.57759791 34.54181065 -52.375 39.42578125 C-55.75230867 41.4511613 -59.22463005 43.20757281 -62.78125 44.89453125 C-63.5134375 45.25933594 -64.245625 45.62414062 -65 46 C-65.85283569 46.37048462 -66.70567139 46.74096924 -67.58435059 47.12268066 C-70.31409002 48.8359319 -70.31409002 48.8359319 -70.72912598 52.17199707 C-70.77533081 53.48228882 -70.82153564 54.79258057 -70.86914062 56.14257812 C-70.90039032 56.86661835 -70.93164001 57.59065857 -70.96383667 58.3366394 C-71.05733279 60.73491477 -71.1108241 63.13160601 -71.15625 65.53125 C-71.17537949 66.35324387 -71.19450897 67.17523773 -71.21421814 68.0221405 C-71.3126632 72.37898519 -71.37906784 76.73503379 -71.42089844 81.09277344 C-71.46067258 84.68721943 -71.55774067 88.27275828 -71.70800781 91.86425781 C-73.33140927 110.4908082 -73.33140927 110.4908082 -68.18652344 127.72216797 C-63.2453694 132.35651832 -57.55153292 134.60910843 -51 136 C-50.26483154 136.17893799 -49.52966309 136.35787598 -48.7722168 136.54223633 C-45.30417383 137.21792432 -43.41173689 137.23281154 -40.31037903 135.47918701 C-37.27687156 132.22403614 -37.28946536 129.62230063 -37.34057617 125.38574219 C-37.32485062 124.24369827 -37.32485062 124.24369827 -37.30880737 123.07858276 C-37.28005686 120.56759895 -37.28634837 118.05799392 -37.29296875 115.546875 C-37.27985362 113.80379508 -37.26454995 112.06073037 -37.24714661 110.31768799 C-37.20726172 105.73421223 -37.19710395 101.15113372 -37.19311523 96.56750488 C-37.18379033 91.8886304 -37.14638085 87.20998996 -37.11132812 82.53125 C-37.04671686 73.35417763 -37.01350583 64.1772799 -37 55 C-33.04 55 -29.08 55 -25 55 C-24.90714192 65.42284578 -24.83615486 75.84559244 -24.79275131 86.26876831 C-24.77191515 91.10917823 -24.74367034 95.94930423 -24.69824219 100.78955078 C-24.65464242 105.46447524 -24.63083304 110.13912734 -24.62049103 114.8142395 C-24.61312496 116.59396652 -24.59874078 118.37367936 -24.57707977 120.15328979 C-24.54785722 122.65459906 -24.54405175 125.15479632 -24.54589844 127.65625 C-24.52432678 128.74922142 -24.52432678 128.74922142 -24.50231934 129.86427307 C-24.54548814 135.30128934 -26.03513866 139.43652736 -29 144 C-33.22011447 148.1119064 -37.2624729 150.06205371 -43.125 150.375 C-51.84487255 150.14362693 -59.36139724 146.08147118 -66.578125 141.5078125 C-69.62508597 139.61083357 -72.78796653 137.98502793 -75.9921875 136.37109375 C-78.71281537 134.51323308 -80.19127936 132.7775721 -82 130 C-82.38224102 127.13506007 -82.53809913 124.66002295 -82.50170898 121.80078125 C-82.50711197 120.98878265 -82.51251495 120.17678406 -82.51808167 119.34017944 C-82.5305591 116.66391217 -82.51408495 113.98872277 -82.49609375 111.3125 C-82.49624876 109.44832299 -82.4977381 107.58414566 -82.50050354 105.7199707 C-82.50188709 101.81609828 -82.48933684 97.91259344 -82.46655273 94.00878906 C-82.43816827 89.00844289 -82.44090603 84.0087074 -82.45364285 79.00831604 C-82.46060271 75.1598185 -82.45280721 71.31146174 -82.44038582 67.46298218 C-82.43587432 65.61942078 -82.43553189 63.77584425 -82.43945122 61.93228149 C-82.44236646 59.35427956 -82.42584187 56.77711481 -82.40405273 54.19921875 C-82.40855438 53.43958832 -82.41305603 52.67995789 -82.41769409 51.89730835 C-82.35492083 47.42007828 -81.72785944 44.57873526 -79 41 C-77.17773438 39.45410156 -77.17773438 39.45410156 -75.09375 38.140625 C-73.89685547 37.38362305 -73.89685547 37.38362305 -72.67578125 36.61132812 C-67.65587694 33.58839305 -62.59057942 30.65212696 -57.5 27.75 C-55.17759293 26.41934896 -52.85645133 25.08649591 -50.53515625 23.75390625 C-48.85317139 22.78928467 -48.85317139 22.78928467 -47.13720703 21.80517578 C-43.05614535 19.45689796 -38.99372843 17.07832482 -34.9375 14.6875 C-34.2767749 14.30190918 -33.6160498 13.91631836 -32.93530273 13.51904297 C-29.42651132 11.46505279 -25.96730624 9.35408447 -22.5390625 7.16796875 C-7.4831364 -2.32015473 -7.4831364 -2.32015473 0 0 Z " fill="#559B47" transform="translate(240,304)"/>
<path d="M0 0 C1.01763428 0.00829834 2.03526855 0.01659668 3.08374023 0.02514648 C11.29508469 0.2096637 19.01121463 0.66366891 25.6875 5.98046875 C29.20550985 9.67607044 31.86681945 14.37657773 32.75 19.4375 C32.255 21.9125 32.255 21.9125 31.75 24.4375 C28.12 24.4375 24.49 24.4375 20.75 24.4375 C20.1725 23.179375 19.595 21.92125 19 20.625 C17.05175922 16.74223844 15.33974777 14.2987276 11.08203125 12.8828125 C7.84940718 12.2655275 4.72694338 12.26652987 1.4375 12.25 C0.16261719 12.23582031 -1.11226562 12.22164063 -2.42578125 12.20703125 C-6.35945957 12.44409664 -9.56096896 13.05812318 -13.25 14.4375 C-15.6794516 18.0816774 -15.41179575 20.14991272 -15.25 24.4375 C-8.90344095 26.1029986 -2.59422225 27.42065147 3.8984375 28.3515625 C4.99293213 28.51108398 6.08742676 28.67060547 7.21508789 28.83496094 C9.41257637 29.14845284 11.61233508 29.44649802 13.81420898 29.72753906 C21.91042794 30.89231786 27.50413933 33.11049281 33.25 39 C35.76952251 44.77390575 35.69234615 50.69307821 34.16015625 56.78125 C31.4081239 63.37598189 25.6484477 66.60827828 19.40234375 69.5390625 C8.1305814 73.35718524 -7.17388747 72.83827685 -18.25 68.4375 C-24.13057503 65.15869254 -28.5251651 60.89332348 -31 54.5 C-31.36684464 51.47353168 -31.30853863 48.48150887 -31.25 45.4375 C-27.29 45.4375 -23.33 45.4375 -19.25 45.4375 C-18.2734375 49.24609375 -18.2734375 49.24609375 -17.296875 53.0546875 C-16.45879413 55.53699339 -16.45879413 55.53699339 -14.390625 56.6953125 C-9.04107475 58.55008357 -4.12334995 58.65471079 1.5 58.6875 C2.36882812 58.708125 3.23765625 58.72875 4.1328125 58.75 C10.02642378 58.78539706 14.39656094 57.9553275 19.75 55.4375 C21.2283226 52.48085481 20.81032783 49.69520263 20.75 46.4375 C14.1602606 43.02195024 8.21863772 41.68121589 0.875 40.9375 C-19.82108274 38.46912825 -19.82108274 38.46912825 -26.25 31.4375 C-28.97376975 26.55349906 -30.19277083 21.98819569 -29.25 16.4375 C-27.34289475 10.61921281 -24.37022972 6.88380846 -19.25 3.4375 C-12.72408169 0.43674292 -7.13920914 -0.07437286 0 0 Z " fill="#559B47" transform="translate(252.25,356.5625)"/>
<path d="M0 0 C4.10036472 1.78576632 7.1390976 3.93783975 9.15625 8.09765625 C11.30059835 15.86586159 10.55898345 24.28859547 6.77734375 31.34765625 C4.89149288 33.40782947 3.11152998 34.72801682 0.77734375 36.34765625 C0.15859375 36.78078125 -0.46015625 37.21390625 -1.09765625 37.66015625 C-6.01050653 39.24960781 -10.17956248 38.67796928 -14.97265625 37.16015625 C-19.6231492 34.56661211 -21.53966671 32.08927959 -23.47265625 27.16015625 C-24.91041945 19.85152663 -25.20490754 13.65179632 -21.4296875 7.03515625 C-16.23095014 -0.23298142 -8.36586521 -2.45535939 0 0 Z " fill="#6679A7" transform="translate(659.22265625,506.65234375)"/>
<path d="M0 0 C5.94 0 11.88 0 18 0 C19.9375 8.375 19.9375 8.375 20.54272461 11.00927734 C20.78261108 12.03722412 20.78261108 12.03722412 21.02734375 13.0859375 C21.27085571 14.1385376 21.27085571 14.1385376 21.51928711 15.21240234 C21.9588074 17.08394574 21.9588074 17.08394574 23 19 C23.039992 20.99960012 23.04346799 23.00047242 23 25 C23.66 25 24.32 25 25 25 C24.9175 23.989375 24.835 22.97875 24.75 21.9375 C24.71240671 14.98274072 26.86828419 6.26343162 30 0 C35.61 0 41.22 0 47 0 C47 1.32 47 2.64 47 4 C45.35 4 43.7 4 42 4 C43.32 13.57 44.64 23.14 46 33 C47.32 33.33 48.64 33.66 50 34 C50 34.99 50 35.98 50 37 C44.39 37 38.78 37 33 37 C33 36.01 33 35.02 33 34 C34.32 34 35.64 34 37 34 C36.80083984 32.53240234 36.80083984 32.53240234 36.59765625 31.03515625 C36.41908108 29.71096308 36.24070906 28.38674249 36.0625 27.0625 C35.9704126 26.3804248 35.8783252 25.69834961 35.78344727 24.99560547 C35.27737883 21.20972947 34.81937668 17.42528886 34.4375 13.625 C34.40206859 10.1963063 34.40206859 10.1963063 33 9 C32.79318604 9.78238037 32.58637207 10.56476074 32.37329102 11.37084961 C31.43988026 14.89400996 30.50126268 18.41576211 29.5625 21.9375 C29.23701172 23.16919922 28.91152344 24.40089844 28.57617188 25.66992188 C28.26357422 26.83974609 27.95097656 28.00957031 27.62890625 29.21484375 C27.1968689 30.84087524 27.1968689 30.84087524 26.75610352 32.49975586 C26 35 26 35 25 36 C23.00041636 36.04080783 20.99954746 36.04254356 19 36 C17.83605222 32.71446608 16.69733692 29.42069077 15.5625 26.125 C15.07426758 24.74828125 15.07426758 24.74828125 14.57617188 23.34375 C12.48161273 17.21122633 11.33695159 11.47334158 11 5 C10.34 5 9.68 5 9 5 C9.02320313 5.66902344 9.04640625 6.33804688 9.0703125 7.02734375 C9.24172748 16.14906955 8.19714322 24.97867077 7 34 C8.65 34 10.3 34 12 34 C12 34.99 12 35.98 12 37 C7.38 37 2.76 37 -2 37 C-2 35.68 -2 34.36 -2 33 C-0.68 33 0.64 33 2 33 C1.95359375 31.3603125 1.95359375 31.3603125 1.90625 29.6875 C1.90625 24.38083914 2.69839372 19.23571669 3.5 14 C3.71462891 12.55173828 3.71462891 12.55173828 3.93359375 11.07421875 C4.28392426 8.71532665 4.6394935 6.35735455 5 4 C3.35 4 1.7 4 0 4 C0 2.68 0 1.36 0 0 Z " fill="#677AA8" transform="translate(584,507)"/>
<path d="M0 0 C4.06236402 -0.08729047 8.12448589 -0.14048992 12.1875 -0.1875 C13.91323242 -0.22520508 13.91323242 -0.22520508 15.67382812 -0.26367188 C17.34155273 -0.27817383 17.34155273 -0.27817383 19.04296875 -0.29296875 C20.06414795 -0.3086792 21.08532715 -0.32438965 22.13745117 -0.34057617 C26.08450477 0.12903063 28.85611691 1.59614348 31.375 4.6875 C32.33916017 8.25489262 32.02217094 11.46227362 31 15 C29.0625 17.5 29.0625 17.5 27 19 C26.34 19 25.68 19 25 19 C25 19.66 25 20.32 25 21 C25.99 21.33 26.98 21.66 28 22 C29.53515625 24.46875 29.53515625 24.46875 31.0625 27.5 C32.80258773 31.45978058 32.80258773 31.45978058 36 34 C36 34.99 36 35.98 36 37 C32.37 37 28.74 37 25 37 C24.5875 36.01 24.175 35.02 23.75 34 C23.1675235 32.66629213 22.58411893 31.33298936 22 30 C21.69835937 29.27039063 21.39671875 28.54078125 21.0859375 27.7890625 C20.76882813 27.07492187 20.45171875 26.36078125 20.125 25.625 C19.83882812 24.95726562 19.55265625 24.28953125 19.2578125 23.6015625 C17.80791253 21.39820797 17.80791253 21.39820797 13 21 C13 25.29 13 29.58 13 34 C14.32 34 15.64 34 17 34 C17 34.99 17 35.98 17 37 C11.39 37 5.78 37 0 37 C0 36.01 0 35.02 0 34 C1.32 34 2.64 34 4 34 C4 24.1 4 14.2 4 4 C2.68 3.67 1.36 3.34 0 3 C0 2.01 0 1.02 0 0 Z " fill="#6579A6" transform="translate(672,507)"/>
<path d="M0 0 C11.1784617 -0.0231348 22.35691775 -0.04092092 33.53539848 -0.05181217 C38.72559325 -0.0570385 43.91577167 -0.06413164 49.10595703 -0.07543945 C54.11150397 -0.08627718 59.11703516 -0.09227873 64.12259293 -0.09487724 C66.03562798 -0.09672989 67.94866214 -0.10034744 69.86169052 -0.10573006 C72.53395219 -0.11295221 75.20614816 -0.11399044 77.87841797 -0.11352539 C79.07387741 -0.1189183 79.07387741 -0.1189183 80.29348755 -0.12442017 C85.77189568 -0.11405216 85.77189568 -0.11405216 88 1 C88.09765625 7.15234375 88.09765625 7.15234375 88 9 C86.21391943 10.78608057 83.80736465 10.12625961 81.42901611 10.13552856 C80.63001892 10.13350433 79.83102173 10.1314801 79.0078125 10.12939453 C78.1704657 10.13114685 77.3331189 10.13289917 76.47039795 10.13470459 C73.68857786 10.13912401 70.90682079 10.1361848 68.125 10.1328125 C66.20068347 10.13348551 64.27636702 10.13445552 62.35205078 10.13571167 C58.31346835 10.13718877 54.274908 10.13503371 50.23632812 10.13037109 C45.04731489 10.1246738 39.85835337 10.12795274 34.66934204 10.13394356 C30.6940878 10.13754886 26.71884591 10.13641073 22.74359131 10.13381577 C20.8297322 10.13314641 18.91587198 10.13397522 17.00201416 10.13629532 C14.3320415 10.13882133 11.6621538 10.13498198 8.9921875 10.12939453 C8.19319031 10.13141876 7.39419312 10.13344299 6.57098389 10.13552856 C1.1142625 10.1142625 1.1142625 10.1142625 0 9 C-0.07179964 7.48071962 -0.08392007 5.95832518 -0.0625 4.4375 C-0.05347656 3.61121094 -0.04445313 2.78492188 -0.03515625 1.93359375 C-0.02355469 1.29550781 -0.01195312 0.65742188 0 0 Z " fill="#4494F1" transform="translate(1154,399)"/>
<path d="M0 0 C4.55894762 -0.82441557 8.46773608 -1.07181917 13 0 C16.99860965 3.77515793 19.43136278 8.18216872 22 13 C22.62132812 14.093125 23.24265625 15.18625 23.8828125 16.3125 C25.30291644 18.84887169 26.65890889 21.42097863 28 24 C28.33 17.4 28.66 10.8 29 4 C27.68 4 26.36 4 25 4 C25 2.68 25 1.36 25 0 C29.29 0 33.58 0 38 0 C38 1.32 38 2.64 38 4 C36.68 4 35.36 4 34 4 C34 14.89 34 25.78 34 37 C26 37 26 37 24.05371094 35.36694336 C23.61833008 34.61550049 23.18294922 33.86405762 22.734375 33.08984375 C22.23679687 32.26419922 21.73921875 31.43855469 21.2265625 30.58789062 C20.73929688 29.71326172 20.25203125 28.83863281 19.75 27.9375 C19.24726562 27.08994141 18.74453125 26.24238281 18.2265625 25.36914062 C16.78685949 22.92880634 15.38952881 20.46919175 14 18 C12.02 14.535 12.02 14.535 10 11 C9.67 18.59 9.34 26.18 9 34 C10.65 34 12.3 34 14 34 C14 34.99 14 35.98 14 37 C9.38 37 4.76 37 0 37 C0 36.01 0 35.02 0 34 C1.32 34 2.64 34 4 34 C4 24.1 4 14.2 4 4 C2.68 4 1.36 4 0 4 C0 2.68 0 1.36 0 0 Z " fill="#6A7CAB" transform="translate(783,507)"/>
<path d="M0 0 C1.23556641 0.01740234 1.23556641 0.01740234 2.49609375 0.03515625 C3.32238281 0.04417969 4.14867187 0.05320312 5 0.0625 C5.63808594 0.07410156 6.27617188 0.08570313 6.93359375 0.09765625 C8.34363908 4.13469807 9.74934259 8.17321791 11.15112305 12.21313477 C11.6281354 13.5859404 12.10631111 14.9583424 12.58569336 16.33032227 C13.27637481 18.30769377 13.96279566 20.28650125 14.6484375 22.265625 C15.062146 23.45438232 15.47585449 24.64313965 15.90209961 25.86791992 C16.77954279 28.61530354 17.44462797 31.25978308 17.93359375 34.09765625 C18.92359375 34.42765625 19.91359375 34.75765625 20.93359375 35.09765625 C20.93359375 36.08765625 20.93359375 37.07765625 20.93359375 38.09765625 C15.65359375 38.09765625 10.37359375 38.09765625 4.93359375 38.09765625 C4.93359375 37.10765625 4.93359375 36.11765625 4.93359375 35.09765625 C5.92359375 35.09765625 6.91359375 35.09765625 7.93359375 35.09765625 C7.60359375 33.11765625 7.27359375 31.13765625 6.93359375 29.09765625 C2.64359375 29.09765625 -1.64640625 29.09765625 -6.06640625 29.09765625 C-6.39640625 31.07765625 -6.72640625 33.05765625 -7.06640625 35.09765625 C-5.74640625 35.09765625 -4.42640625 35.09765625 -3.06640625 35.09765625 C-3.06640625 36.08765625 -3.06640625 37.07765625 -3.06640625 38.09765625 C-7.68640625 38.09765625 -12.30640625 38.09765625 -17.06640625 38.09765625 C-17.06640625 37.10765625 -17.06640625 36.11765625 -17.06640625 35.09765625 C-15.58140625 34.60265625 -15.58140625 34.60265625 -14.06640625 34.09765625 C-13.02651267 31.66096453 -12.18619669 29.33591576 -11.40234375 26.81640625 C-11.16480377 26.08772339 -10.92726379 25.35904053 -10.68252563 24.60827637 C-9.9241073 22.27490251 -9.1822152 19.93667415 -8.44140625 17.59765625 C-7.69039649 15.25974272 -6.93604641 12.92295738 -6.17886353 10.58703613 C-5.70824395 9.13162946 -5.24181137 7.67486126 -4.77987671 6.2166748 C-2.83237926 0.13385535 -2.83237926 0.13385535 0 0 Z " fill="#6375A3" transform="translate(761.06640625,505.90234375)"/>
<path d="M0 0 C1.02867187 -0.01417969 2.05734375 -0.02835937 3.1171875 -0.04296875 C6.17963488 0.19168631 8.35748861 0.89565428 11.125 2.1875 C11.125 5.4875 11.125 8.7875 11.125 12.1875 C9.145 12.1875 7.165 12.1875 5.125 12.1875 C4.465 9.8775 3.805 7.5675 3.125 5.1875 C-0.90446075 4.84609663 -0.90446075 4.84609663 -4.875 5.1875 C-8.03849894 8.26988359 -9.78043336 10.78536777 -10.078125 15.19921875 C-10.28086535 24.62994716 -10.28086535 24.62994716 -6.875 33.1875 C-3.91835481 34.6658226 -1.13270263 34.24782783 2.125 34.1875 C2.455 30.5575 2.785 26.9275 3.125 23.1875 C1.805 23.1875 0.485 23.1875 -0.875 23.1875 C-0.875 21.8675 -0.875 20.5475 -0.875 19.1875 C4.405 19.1875 9.685 19.1875 15.125 19.1875 C14.795 20.5075 14.465 21.8275 14.125 23.1875 C13.465 23.1875 12.805 23.1875 12.125 23.1875 C12.125 27.4775 12.125 31.7675 12.125 36.1875 C3.5795375 39.0359875 -3.41625525 40.84373798 -12.05078125 37.23046875 C-16.08385194 34.9246232 -18.19870386 31.60450143 -20.1875 27.4375 C-21.64351798 20.5545059 -21.82034502 14.20475067 -18.28515625 7.9453125 C-13.66153277 2.18179293 -7.1472096 0.04455866 0 0 Z " fill="#6477A4" transform="translate(729.875,505.8125)"/>
<path d="M0 0 C4.33066552 1.8205839 7.27345197 3.97829184 10 7.8125 C11.21838968 11.69611711 11.92068188 15.02027834 11 19 C8.90118058 22.97376478 6.43678135 26.09255915 2.625 28.5 C-2.76242649 29.52617647 -6.3923922 29.83471943 -11.25 27.3125 C-17.68836675 21.89841887 -17.68836675 21.89841887 -18.3828125 17.66796875 C-18.6394596 11.96184826 -17.95168574 8.36765266 -14 4 C-9.64671099 0.24034131 -5.67884102 -1.22068545 0 0 Z " fill="#081032" transform="translate(488,436)"/>
<path d="M0 0 C4.23165801 2.91514218 7.22828595 6.01642974 8.26171875 11.18359375 C8.45596495 15.15559371 7.96285556 17.61874621 6.25 21.25 C2.37588487 25.52146027 -1.37629624 28.10057627 -7.25 28.4375 C-12.55480009 27.76387459 -15.498978 25.85892158 -19 21.875 C-21.66332985 17.52956709 -22.06522924 12.88395545 -21.1875 7.9375 C-16.39103956 -0.35865796 -9.07517938 -3.02505979 0 0 Z " fill="#081133" transform="translate(491.1875,320.0625)"/>
<path d="M0 0 C3.91259565 2.43450396 6.33867368 4.32852105 7.8125 8.75 C8.22360876 12.97177069 8.28793683 16.62396541 6.625 20.5625 C3.76877898 24.0096633 1.07874316 26.32791895 -3.1875 27.75 C-8.45321469 28.14741243 -11.6318154 27.4167422 -16.1875 24.75 C-16.1875 24.09 -16.1875 23.43 -16.1875 22.75 C-16.8475 22.75 -17.5075 22.75 -18.1875 22.75 C-21.31507404 18.05863893 -21.00921265 13.23280679 -20.1875 7.75 C-15.95673717 -0.24449339 -8.57822221 -3.36400871 0 0 Z " fill="#080F31" transform="translate(924.1875,320.25)"/>
<path d="M0 0 C3.97287734 2.32375844 5.93144243 4.61664737 7.3125 8.9375 C8.11740985 13.2980116 8.32864684 17.10100869 6.13671875 21.0625 C2.30563895 25.81422688 -1.04053899 27.64874062 -7.125 28.3125 C-12.43081945 27.75399269 -15.13802158 25.28309968 -19.0625 21.875 C-21.58759929 17.31039743 -21.66237287 13.02284428 -20.6875 7.9375 C-16.04827399 -0.48793305 -9.1070422 -2.62406301 0 0 Z " fill="#080F31" transform="translate(924.6875,437.0625)"/>
<path d="M0 0 C21.12 0 42.24 0 64 0 C64 2.64 64 5.28 64 8 C63 9 63 9 60.48802185 9.12025452 C59.37105423 9.11803391 58.25408661 9.11581329 57.10327148 9.11352539 C55.84203964 9.11344986 54.5808078 9.11337433 53.28135681 9.11329651 C51.89460206 9.1081891 50.50784771 9.10297309 49.12109375 9.09765625 C47.71004791 9.09579201 46.29900143 9.09436814 44.88795471 9.09336853 C41.16759465 9.08954379 37.4472734 9.0797139 33.72692871 9.06866455 C29.93319219 9.05844948 26.13944942 9.05387071 22.34570312 9.04882812 C14.89711769 9.03809158 7.44856428 9.0210157 0 9 C0 6.03 0 3.06 0 0 Z " fill="#668BC7" transform="translate(1160,363)"/>
<path d="M0 0 C0.95708359 0.00222061 1.91416718 0.00444122 2.9002533 0.00672913 C3.98129837 0.00680466 5.06234344 0.00688019 6.17614746 0.00695801 C7.94018166 0.01469994 7.94018166 0.01469994 9.73985291 0.02259827 C10.93702438 0.02401321 12.13419586 0.02542816 13.36764526 0.02688599 C17.20918732 0.03250472 21.05067208 0.04506041 24.89219666 0.05775452 C27.48920102 0.0627671 30.0862063 0.06733043 32.68321228 0.07142639 C39.06539597 0.08248025 45.44753659 0.09975744 51.82969666 0.12025452 C51.82969666 3.42025452 51.82969666 6.72025452 51.82969666 10.12025452 C44.15757993 10.14489445 36.48548601 10.16308574 28.81333923 10.17518616 C26.20103047 10.18022828 23.58872454 10.18706177 20.97642517 10.19569397 C17.23089397 10.20776488 13.48539994 10.21348387 9.73985291 10.21791077 C8.56383011 10.22307205 7.38780731 10.22823334 6.17614746 10.23355103 C5.09510239 10.23362656 4.01405731 10.23370209 2.9002533 10.23377991 C1.94316971 10.23600052 0.98608612 10.23822113 0 10.24050903 C-2.17030334 10.12025452 -2.17030334 10.12025452 -3.17030334 9.12025452 C-3.30311584 7.30775452 -3.30311584 7.30775452 -3.29530334 5.12025452 C-3.29788147 4.39837952 -3.30045959 3.67650452 -3.30311584 2.93275452 C-3.10578111 0.23971574 -2.69173406 0.14914651 0 0 Z " fill="#6488C5" transform="translate(1098.1703033447266,306.87974548339844)"/>
<path d="M0 0 C1.22244667 0.00333092 1.22244667 0.00333092 2.46958923 0.00672913 C3.39046829 0.00680466 4.31134735 0.00688019 5.26013184 0.00695801 C6.2611644 0.01211929 7.26219696 0.01728058 8.29356384 0.02259827 C9.31316696 0.02401321 10.33277008 0.02542816 11.38327026 0.02688599 C14.65417867 0.03250355 17.92501972 0.04505902 21.19590759 0.05775452 C23.40749515 0.06276725 25.61908377 0.06733055 27.83067322 0.07142639 C33.26494413 0.08247869 38.69916443 0.09975508 44.13340759 0.12025452 C44.13340759 3.42025452 44.13340759 6.72025452 44.13340759 10.12025452 C37.6006142 10.14489798 31.06784762 10.16308743 24.53501892 10.17518616 C22.31073028 10.18022768 20.08644496 10.18706074 17.86216736 10.19569397 C14.67262451 10.2077675 11.4831253 10.21348447 8.29356384 10.21791077 C6.792015 10.22565269 6.792015 10.22565269 5.26013184 10.23355103 C4.33925278 10.23362656 3.41837372 10.23370209 2.46958923 10.23377991 C1.24714256 10.23711082 1.24714256 10.23711082 0 10.24050903 C-1.86659241 10.12025452 -1.86659241 10.12025452 -2.86659241 9.12025452 C-2.99940491 7.30775452 -2.99940491 7.30775452 -2.99159241 5.12025452 C-2.99417053 4.39837952 -2.99674866 3.67650452 -2.99940491 2.93275452 C-2.81601552 0.43002882 -2.50307649 0.16125976 0 0 Z " fill="#6488C5" transform="translate(1097.8665924072266,361.87974548339844)"/>
<path d="M0 0 C0.87760986 -0.00315216 1.75521973 -0.00630432 2.65942383 -0.009552 C3.61357178 -0.00752777 4.56771973 -0.00550354 5.55078125 -0.00341797 C6.52362061 -0.00437469 7.49645996 -0.00533142 8.4987793 -0.00631714 C10.56005925 -0.00699905 12.62134133 -0.00514399 14.68261719 -0.00097656 C17.84965813 0.00437153 21.01655725 -0.00092119 24.18359375 -0.00732422 C26.1809899 -0.00666344 28.17838596 -0.00538228 30.17578125 -0.00341797 C31.1299292 -0.0054422 32.08407715 -0.00746643 33.06713867 -0.009552 C34.38355347 -0.00482376 34.38355347 -0.00482376 35.7265625 0 C36.50298096 0.00079559 37.27939941 0.00159119 38.0793457 0.00241089 C39.86328125 0.12939453 39.86328125 0.12939453 40.86328125 1.12939453 C40.99609375 2.94189453 40.99609375 2.94189453 40.98828125 5.12939453 C40.99214844 6.21220703 40.99214844 6.21220703 40.99609375 7.31689453 C40.86328125 9.12939453 40.86328125 9.12939453 39.86328125 10.12939453 C38.48718243 10.22734764 37.10614243 10.25737541 35.7265625 10.25878906 C34.41014771 10.2635173 34.41014771 10.2635173 33.06713867 10.26834106 C32.11299072 10.26631683 31.15884277 10.2642926 30.17578125 10.26220703 C28.71652222 10.26364212 28.71652222 10.26364212 27.2277832 10.2651062 C25.16650325 10.26578811 23.10522117 10.26393306 21.04394531 10.25976562 C17.87690437 10.25441754 14.71000525 10.25971025 11.54296875 10.26611328 C9.5455726 10.2654525 7.54817654 10.26417134 5.55078125 10.26220703 C4.5966333 10.26423126 3.64248535 10.26625549 2.65942383 10.26834106 C1.78181396 10.2651889 0.9042041 10.26203674 0 10.25878906 C-0.77641846 10.25799347 -1.55283691 10.25719788 -2.3527832 10.25637817 C-4.13671875 10.12939453 -4.13671875 10.12939453 -5.13671875 9.12939453 C-5.26953125 7.31689453 -5.26953125 7.31689453 -5.26171875 5.12939453 C-5.26429687 4.40751953 -5.266875 3.68564453 -5.26953125 2.94189453 C-5.01185135 -0.57467818 -3.04426233 0.00311944 0 0 Z " fill="#648AC5" transform="translate(1143.13671875,415.87060546875)"/>
<path d="M0 0 C16.5 0 33 0 50 0 C50 2.97 50 5.94 50 9 C33.5 9 17 9 0 9 C0 6.03 0 3.06 0 0 Z " fill="#698DCA" transform="translate(1123,326)"/>
<path d="M0 0 C1.60875 0.185625 1.60875 0.185625 3.25 0.375 C7.8278559 7.52789985 8.09420357 14.00248698 7.25 22.375 C6.30459092 26.05426717 4.97009987 28.65490013 2.25 31.375 C-0.6875 31.75 -0.6875 31.75 -3.75 31.375 C-8.2870884 26.8379116 -7.99059794 21.55913154 -8.0625 15.5625 C-8.09150391 14.76779297 -8.12050781 13.97308594 -8.15039062 13.15429688 C-8.2187464 6.79720965 -7.33664256 0.73366426 0 0 Z " fill="#0A1032" transform="translate(652.75,509.625)"/>
<path d="M0 0 C6.1055471 -0.02464513 12.21106551 -0.04283371 18.31665039 -0.05493164 C20.39543156 -0.05997288 22.47420916 -0.06680574 24.55297852 -0.07543945 C27.53402586 -0.08751422 30.51502649 -0.09323024 33.49609375 -0.09765625 C34.89921059 -0.10539818 34.89921059 -0.10539818 36.33067322 -0.11329651 C37.19149002 -0.11337204 38.05230682 -0.11344757 38.93920898 -0.11352539 C40.08171364 -0.11685631 40.08171364 -0.11685631 41.24729919 -0.12025452 C43 0 43 0 44 1 C44.125 4.5 44.125 4.5 44 8 C43 9 43 9 41.24729919 9.12025452 C40.48562943 9.11803391 39.72395966 9.11581329 38.93920898 9.11352539 C38.07839218 9.11344986 37.21757538 9.11337433 36.33067322 9.11329651 C35.39526199 9.10813522 34.45985077 9.10297394 33.49609375 9.09765625 C32.54307877 9.0962413 31.59006378 9.09482635 30.60816956 9.09336853 C27.55124835 9.08775152 24.49439923 9.07519616 21.4375 9.0625 C19.37044376 9.05748719 17.30338638 9.05292391 15.23632812 9.04882812 C10.15752412 9.03777656 5.0787743 9.02050055 0 9 C0 6.03 0 3.06 0 0 Z " fill="#698ECB" transform="translate(1153,381)"/>
<path d="M0 0 C13.86 0 27.72 0 42 0 C42 2.97 42 5.94 42 9 C28.14 9 14.28 9 0 9 C0 6.03 0 3.06 0 0 Z " fill="#4599FB" transform="translate(1113,450)"/>
<path d="M0 0 C12.54 0 25.08 0 38 0 C38 2.97 38 5.94 38 9 C36.21169552 10.78830448 33.80418848 10.12848711 31.42358398 10.13894653 C30.64442627 10.1369223 29.86526855 10.13489807 29.0625 10.1328125 C27.86959351 10.13424759 27.86959351 10.13424759 26.65258789 10.13571167 C24.9679354 10.13639343 23.28328029 10.13453943 21.59863281 10.13037109 C19.01100803 10.12502275 16.42355684 10.13031619 13.8359375 10.13671875 C12.20312461 10.13605797 10.57031184 10.1347768 8.9375 10.1328125 C8.15834229 10.13483673 7.37918457 10.13686096 6.57641602 10.13894653 C1.11495105 10.11495105 1.11495105 10.11495105 0 9 C0 6.03 0 3.06 0 0 Z " fill="#6388C4" transform="translate(1095,416)"/>
<path d="M0 0 C13.53 0 27.06 0 41 0 C41 2.97 41 5.94 41 9 C27.47 9 13.94 9 0 9 C0 6.03 0 3.06 0 0 Z " fill="#688DC9" transform="translate(1095,344)"/>
<path d="M0 0 C5.67830078 -0.02464705 11.35657069 -0.04283462 17.03491211 -0.05493164 C18.96818585 -0.05997256 20.90145576 -0.06680519 22.8347168 -0.07543945 C25.60726872 -0.08751565 28.37977041 -0.09323057 31.15234375 -0.09765625 C32.45702858 -0.10539818 32.45702858 -0.10539818 33.78807068 -0.11329651 C35.85905814 -0.11349185 37.92994324 -0.06208168 40 0 C41 1 41 1 41 9 C27.47 9 13.94 9 0 9 C0 6.03 0 3.06 0 0 Z " fill="#668BC7" transform="translate(1109,399)"/>
<path d="M0 0 C2.145447 2.55410357 2.11879625 4.80686372 1.875 8 C1.4091057 11.00866682 0.99920311 12.00102825 -0.9375 14.5 C-3 16 -3 16 -5 16 C-5 16.66 -5 17.32 -5 18 C-4.01 18.33 -3.02 18.66 -2 19 C-0.46484375 21.46875 -0.46484375 21.46875 1.0625 24.5 C2.80258773 28.45978058 2.80258773 28.45978058 6 31 C6 31.99 6 32.98 6 34 C2.37 34 -1.26 34 -5 34 C-5.4125 33.01 -5.825 32.02 -6.25 31 C-7.45569725 28.20755966 -8.69420938 25.43468257 -10 22.6875 C-10.4640625 21.70330078 -10.4640625 21.70330078 -10.9375 20.69921875 C-12.04068209 18.67575753 -12.04068209 18.67575753 -15 17 C-15 16.34 -15 15.68 -15 15 C-13.02 14.67 -11.04 14.34 -9 14 C-8.97421875 13.08476563 -8.9484375 12.16953125 -8.921875 11.2265625 C-8.86515625 10.03804687 -8.8084375 8.84953125 -8.75 7.625 C-8.70359375 6.44164062 -8.6571875 5.25828125 -8.609375 4.0390625 C-8 1 -8 1 -6.0859375 -0.421875 C-3.55728474 -1.12270011 -2.38175006 -1.11148336 0 0 Z " fill="#6779A8" transform="translate(702,510)"/>
<path d="M0 0 C10.56 0 21.12 0 32 0 C32 2.64 32 5.28 32 8 C31 9 31 9 28.04077148 9.11352539 C26.74727783 9.10828857 25.45378418 9.10305176 24.12109375 9.09765625 C23.09110008 9.09553383 23.09110008 9.09553383 22.04029846 9.09336853 C19.83932199 9.08775479 17.63844591 9.07520007 15.4375 9.0625 C13.94856917 9.05748676 12.45963676 9.05292355 10.97070312 9.04882812 C7.31376925 9.03778093 3.65689442 9.02050713 0 9 C0 6.03 0 3.06 0 0 Z " fill="#668BC7" transform="translate(1168,308)"/>
<path d="M0 0 C1.12019531 -0.00128906 2.24039062 -0.00257813 3.39453125 -0.00390625 C4.57402344 -0.00003906 5.75351563 0.00382812 6.96875 0.0078125 C8.73798828 0.00201172 8.73798828 0.00201172 10.54296875 -0.00390625 C12.22326172 -0.00197266 12.22326172 -0.00197266 13.9375 0 C14.97326172 0.00112793 16.00902344 0.00225586 17.07617188 0.00341797 C19.46875 0.1328125 19.46875 0.1328125 20.46875 1.1328125 C20.46875 4.1028125 20.46875 7.0728125 20.46875 10.1328125 C11.55875 10.1328125 2.64875 10.1328125 -6.53125 10.1328125 C-6.53125 0.00711244 -6.53125 0.00711244 0 0 Z " fill="#6488C5" transform="translate(1128.53125,432.8671875)"/>
<path d="M0 0 C0.33 0 0.66 0 1 0 C1.42765417 6.41481258 -0.14256832 11.88595404 -2 18 C-1.06027344 17.94779297 -1.06027344 17.94779297 -0.1015625 17.89453125 C0.71570313 17.86746094 1.53296875 17.84039063 2.375 17.8125 C3.18710937 17.77769531 3.99921875 17.74289062 4.8359375 17.70703125 C5.55007813 17.80371094 6.26421875 17.90039062 7 18 C7.66 18.99 8.32 19.98 9 21 C4.71 21 0.42 21 -4 21 C-4.33 23.31 -4.66 25.62 -5 28 C-3.68 28 -2.36 28 -1 28 C-1 28.99 -1 29.98 -1 31 C-5.62 31 -10.24 31 -15 31 C-15 30.01 -15 29.02 -15 28 C-14.01 27.67 -13.02 27.34 -12 27 C-10.99305471 24.83282574 -10.99305471 24.83282574 -10.31640625 22.16015625 C-9.88424805 20.6896582 -9.88424805 20.6896582 -9.44335938 19.18945312 C-8.85742601 17.10945463 -8.27408014 15.02872546 -7.69335938 12.94726562 C-7.40396484 11.96564453 -7.11457031 10.98402344 -6.81640625 9.97265625 C-6.43657593 8.61539429 -6.43657593 8.61539429 -6.04907227 7.23071289 C-4.76680816 4.50414851 -3.67247084 4.20215994 -1 3 C-0.67 2.01 -0.34 1.02 0 0 Z " fill="#697CAA" transform="translate(759,513)"/>
<path d="M0 0 C7.59 0 15.18 0 23 0 C23 2.97 23 5.94 23 9 C19.35418313 9.02887512 15.70839537 9.04675585 12.0625 9.0625 C10.50112305 9.07506836 10.50112305 9.07506836 8.90820312 9.08789062 C7.91884766 9.09111328 6.92949219 9.09433594 5.91015625 9.09765625 C4.99371338 9.10289307 4.07727051 9.10812988 3.13305664 9.11352539 C1 9 1 9 0 8 C0 5.36 0 2.72 0 0 Z " fill="#668AC6" transform="translate(1095,326)"/>
<path d="M0 0 C3.31255326 -0.02683436 6.62489183 -0.0467578 9.9375 -0.0625 C10.88302734 -0.07087891 11.82855469 -0.07925781 12.80273438 -0.08789062 C14.15141602 -0.09272461 14.15141602 -0.09272461 15.52734375 -0.09765625 C16.77632446 -0.10551147 16.77632446 -0.10551147 18.05053711 -0.11352539 C20 0 20 0 21 1 C21 3.64 21 6.28 21 9 C14.07 9 7.14 9 0 9 C0 6.03 0 3.06 0 0 Z " fill="#668DC9" transform="translate(1095,433)"/>
<path d="M0 0 C0.33 10.89 0.66 21.78 1 33 C-1.64 33 -4.28 33 -7 33 C-9 30 -9 30 -8.6875 27.4375 C-8 25 -8 25 -7 23 C-5.68 23.33 -4.36 23.66 -3 24 C-3 16.41 -3 8.82 -3 1 C-1 0 -1 0 0 0 Z " fill="#6B7DAB" transform="translate(816,511)"/>
<path d="M0 0 C5.61 0 11.22 0 17 0 C17 2.64 17 5.28 17 8 C15.24440058 9.75559942 12.96417558 9.13221919 10.62890625 9.13671875 C9.92636719 9.13285156 9.22382812 9.12898438 8.5 9.125 C7.79746094 9.12886719 7.09492187 9.13273437 6.37109375 9.13671875 C1.12661378 9.12661378 1.12661378 9.12661378 0 8 C0 5.36 0 2.72 0 0 Z " fill="#4399FC" transform="translate(1113,381)"/>
<path d="M0 0 C1.1859375 0.00257813 2.371875 0.00515625 3.59375 0.0078125 C4.7796875 0.00523437 5.965625 0.00265625 7.1875 0 C10.09375 0.1328125 10.09375 0.1328125 11.09375 1.1328125 C11.2265625 2.9453125 11.2265625 2.9453125 11.21875 5.1328125 C11.22132812 5.8546875 11.22390625 6.5765625 11.2265625 7.3203125 C11.09375 9.1328125 11.09375 9.1328125 10.09375 10.1328125 C7.92894203 10.2317419 5.76081215 10.2625235 3.59375 10.2578125 C2.4078125 10.26039063 1.221875 10.26296875 0 10.265625 C-2.90625 10.1328125 -2.90625 10.1328125 -3.90625 9.1328125 C-4.0390625 7.3203125 -4.0390625 7.3203125 -4.03125 5.1328125 C-4.03382812 4.4109375 -4.03640625 3.6890625 -4.0390625 2.9453125 C-3.81304861 -0.13911236 -3.13146765 0.1431047 0 0 Z " fill="#668AC7" transform="translate(1157.90625,432.8671875)"/>
<path d="M0 0 C1.1859375 0.00257813 2.371875 0.00515625 3.59375 0.0078125 C4.7796875 0.00523437 5.965625 0.00265625 7.1875 0 C10.09375 0.1328125 10.09375 0.1328125 11.09375 1.1328125 C11.32904412 6.66222426 11.32904412 6.66222426 10.09375 9.1328125 C7.94798363 9.15967188 5.80212355 9.17914338 3.65625 9.1953125 C2.46128906 9.20691406 1.26632812 9.21851563 0.03515625 9.23046875 C-2.90625 9.1328125 -2.90625 9.1328125 -3.90625 8.1328125 C-4.03125 4.6328125 -4.03125 4.6328125 -3.90625 1.1328125 C-2.90625 0.1328125 -2.90625 0.1328125 0 0 Z " fill="#6589C5" transform="translate(1097.90625,449.8671875)"/>
<path d="M0 0 C2.31 0 4.62 0 7 0 C9.51012963 2.51012963 9.29721609 3.46805237 9.3125 6.9375 C9.32925781 7.81277344 9.34601562 8.68804688 9.36328125 9.58984375 C9 12 9 12 7.85546875 13.81640625 C6 15 6 15 0 15 C0 10.05 0 5.1 0 0 Z " fill="#091033" transform="translate(685,510)"/>
<path d="M0 0 C0.66 1.32 1.32 2.64 2 4 C2.66 3.67 3.32 3.34 4 3 C4 11.58 4 20.16 4 29 C5.65 29 7.3 29 9 29 C9 29.99 9 30.98 9 32 C4.38 32 -0.24 32 -5 32 C-5 31.01 -5 30.02 -5 29 C-3.68 29 -2.36 29 -1 29 C-0.67 19.43 -0.34 9.86 0 0 Z " fill="#6073A0" transform="translate(788,512)"/>
<path d="M0 0 C4.62 0 9.24 0 14 0 C14.09765625 6.15234375 14.09765625 6.15234375 14 8 C13 9 13 9 10.05859375 9.09765625 C8.26615234 9.08025391 8.26615234 9.08025391 6.4375 9.0625 C4.64119141 9.04896484 4.64119141 9.04896484 2.80859375 9.03515625 C1.88175781 9.02355469 0.95492188 9.01195312 0 9 C0 6.03 0 3.06 0 0 Z " fill="#668AC5" transform="translate(1095,381)"/>
<path d="M0 0 C3.96 0 7.92 0 12 0 C12 2.97 12 5.94 12 9 C8.04 9 4.08 9 0 9 C0 6.03 0 3.06 0 0 Z " fill="#6A8DC9" transform="translate(1135,381)"/>
<path d="M0 0 C0.33 0.66 0.66 1.32 1 2 C1.99 2.33 2.98 2.66 4 3 C4 4.98 4 6.96 4 9 C3.34 8.67 2.68 8.34 2 8 C0.68 12.62 -0.64 17.24 -2 22 C-2.66 22 -3.32 22 -4 22 C-4.33 22.66 -4.66 23.32 -5 24 C-6.40321186 18.27021825 -5.6974076 13.7166078 -4.1875 8.0625 C-4.00993164 7.38759521 -3.83236328 6.71269043 -3.64941406 6.01733398 C-3.16946763 4.32351943 -2.59172247 2.65807746 -2 1 C-1.34 0.67 -0.68 0.34 0 0 Z " fill="#6576A1" transform="translate(615,508)"/>
<path d="M0 0 C4.29 0 8.58 0 13 0 C13 1.32 13 2.64 13 4 C11.68 4 10.36 4 9 4 C9 11.59 9 19.18 9 27 C8.67 27 8.34 27 8 27 C7.67 20.07 7.34 13.14 7 6 C6.67 6 6.34 6 6 6 C5.67 12.93 5.34 19.86 5 27 C3 25 3 25 2.86474609 22.84521484 C2.91711426 21.97590332 2.96948242 21.1065918 3.0234375 20.2109375 C3.075 19.26992188 3.1265625 18.32890625 3.1796875 17.359375 C3.24414062 16.37453125 3.30859375 15.3896875 3.375 14.375 C3.43171875 13.38242187 3.4884375 12.38984375 3.546875 11.3671875 C3.68859241 8.91075233 3.84002277 6.45530265 4 4 C2.68 4 1.36 4 0 4 C0 2.68 0 1.36 0 0 Z " fill="#5C6D9A" transform="translate(808,507)"/>
<path d="M0 0 C0.721875 0.00257813 1.44375 0.00515625 2.1875 0.0078125 C2.909375 0.00523437 3.63125 0.00265625 4.375 0 C6.1875 0.1328125 6.1875 0.1328125 7.1875 1.1328125 C7.3203125 2.9453125 7.3203125 2.9453125 7.3125 5.1328125 C7.31507812 5.8546875 7.31765625 6.5765625 7.3203125 7.3203125 C7.1875 9.1328125 7.1875 9.1328125 6.1875 10.1328125 C4.375 10.265625 4.375 10.265625 2.1875 10.2578125 C1.465625 10.26039063 0.74375 10.26296875 0 10.265625 C-1.8125 10.1328125 -1.8125 10.1328125 -2.8125 9.1328125 C-2.9453125 7.3203125 -2.9453125 7.3203125 -2.9375 5.1328125 C-2.94007812 4.4109375 -2.94265625 3.6890625 -2.9453125 2.9453125 C-2.7645617 0.47859567 -2.46671683 0.1807508 0 0 Z " fill="#6184C0" transform="translate(1148.8125,361.8671875)"/>
<path d="M0 0 C0.721875 0.00257813 1.44375 0.00515625 2.1875 0.0078125 C2.909375 0.00523437 3.63125 0.00265625 4.375 0 C6.1875 0.1328125 6.1875 0.1328125 7.1875 1.1328125 C7.3203125 2.9453125 7.3203125 2.9453125 7.3125 5.1328125 C7.31507812 5.8546875 7.31765625 6.5765625 7.3203125 7.3203125 C7.1875 9.1328125 7.1875 9.1328125 6.1875 10.1328125 C4.375 10.265625 4.375 10.265625 2.1875 10.2578125 C1.465625 10.26039063 0.74375 10.26296875 0 10.265625 C-1.8125 10.1328125 -1.8125 10.1328125 -2.8125 9.1328125 C-2.9453125 7.3203125 -2.9453125 7.3203125 -2.9375 5.1328125 C-2.94007812 4.4109375 -2.94265625 3.6890625 -2.9453125 2.9453125 C-2.7645617 0.47859567 -2.46671683 0.1807508 0 0 Z " fill="#5ADEA4" transform="translate(1156.8125,306.8671875)"/>
<path d="M0 0 C13.53 0 27.06 0 41 0 C41 2.97 41 5.94 41 9 C27.47 9 13.94 9 0 9 C0 8.67 0 8.34 0 8 C12.54 8 25.08 8 38 8 C38.66 5.69 39.32 3.38 40 1 C26.8 1 13.6 1 0 1 C0 0.67 0 0.34 0 0 Z " fill="#5CA4FB" transform="translate(1114,450)"/>
<path d="M0 0 C0 1.32 0 2.64 0 4 C-0.66 4 -1.32 4 -2 4 C-1.98839844 4.73863281 -1.97679687 5.47726562 -1.96484375 6.23828125 C-1.90270423 13.22453848 -2.23455014 20.0562763 -3 27 C-3.33 27 -3.66 27 -4 27 C-4.04898438 26.22914063 -4.09796875 25.45828125 -4.1484375 24.6640625 C-4.22320313 23.66117188 -4.29796875 22.65828125 -4.375 21.625 C-4.44460938 20.62726562 -4.51421875 19.62953125 -4.5859375 18.6015625 C-4.76363964 15.84491121 -4.76363964 15.84491121 -7 14 C-6.9765625 11.3984375 -6.9765625 11.3984375 -6.625 8.375 C-6.51414062 7.37210938 -6.40328125 6.36921875 -6.2890625 5.3359375 C-6.14597656 4.17964844 -6.14597656 4.17964844 -6 3 C-7.65 3 -9.3 3 -11 3 C-11 2.67 -11 2.34 -11 2 C-9.5422647 1.664061 -8.08378894 1.33133376 -6.625 1 C-5.40683594 0.7215625 -5.40683594 0.7215625 -4.1640625 0.4375 C-2 0 -2 0 0 0 Z " fill="#61729D" transform="translate(595,508)"/>
<path d="M0 0 C2.29688569 2.29688569 2.71851303 3.78928171 3.625 6.875 C3.88539063 7.73867188 4.14578125 8.60234375 4.4140625 9.4921875 C5 12 5 12 5 16 C2.03 16 -0.94 16 -4 16 C-2.98408579 10.53135543 -1.92908943 5.23609987 0 0 Z " fill="#081135" transform="translate(761,514)"/>
<path d="M0 0 C2.97 0 5.94 0 9 0 C9 2.97 9 5.94 9 9 C6.03 9 3.06 9 0 9 C0 6.03 0 3.06 0 0 Z " fill="#698DC9" transform="translate(1095,399)"/>
<path d="M0 0 C0.99 0 1.98 0 3 0 C1.37351689 5.32303563 -1.47679196 7.59821776 -6.25 10.25 C-14.55764601 12.51572164 -21.25106601 10.24441348 -29 7 C-26 5 -26 5 -23.375 5.25 C-22.59125 5.4975 -21.8075 5.745 -21 6 C-20.67 6.66 -20.34 7.32 -20 8 C-15.05 8 -10.1 8 -5 8 C-4.67 7.01 -4.34 6.02 -4 5 C-3.01 4.67 -2.02 4.34 -1 4 C-0.26676204 1.98491642 -0.26676204 1.98491642 0 0 Z " fill="#559251" transform="translate(210,443)"/>
<path d="M0 0 C5.61 0 11.22 0 17 0 C17 2.64 17 5.28 17 8 C15.24440058 9.75559942 12.96417558 9.13221919 10.62890625 9.13671875 C9.92636719 9.13285156 9.22382812 9.12898438 8.5 9.125 C7.79746094 9.12886719 7.09492187 9.13273437 6.37109375 9.13671875 C1.12661378 9.12661378 1.12661378 9.12661378 0 8 C0 5.36 0 2.72 0 0 Z M3 1 C2.67 2.98 2.34 4.96 2 7 C6.62 7 11.24 7 16 7 C15.67 5.02 15.34 3.04 15 1 C11.04 1 7.08 1 3 1 Z " fill="#4D97F1" transform="translate(1113,381)"/>
<path d="M0 0 C5.28 0 10.56 0 16 0 C15.67 1.32 15.34 2.64 15 4 C14.34 4 13.68 4 13 4 C13 7.63 13 11.26 13 15 C12.34 15 11.68 15 11 15 C11 10.71 11 6.42 11 2 C7.37 2.33 3.74 2.66 0 3 C0 2.01 0 1.02 0 0 Z " fill="#6C7CA8" transform="translate(729,525)"/>
<path d="M0 0 C0.99 0.33 1.98 0.66 3 1 C3.054348 3.0622048 3.09294961 5.12482816 3.125 7.1875 C3.14820313 8.33605469 3.17140625 9.48460937 3.1953125 10.66796875 C3.00484152 13.91740372 2.39360127 16.08660521 1 19 C0.34 19 -0.32 19 -1 19 C-1.0272616 16.95840905 -1.04651345 14.91671037 -1.0625 12.875 C-1.07410156 11.73804688 -1.08570313 10.60109375 -1.09765625 9.4296875 C-1.005327 6.1870844 -0.61389906 3.18067388 0 0 Z " fill="#6C7FAD" transform="translate(588,522)"/>
<path d="M0 0 C3.63 0.33 7.26 0.66 11 1 C11 1.66 11 2.32 11 3 C12.21623047 2.96519531 12.21623047 2.96519531 13.45703125 2.9296875 C20.89522198 2.80845971 27.74138003 3.37081075 35 5 C34.67 5.66 34.34 6.32 34 7 C30.01895453 6.57863693 26.0406896 6.13496285 22.0625 5.6875 C20.94552734 5.56955078 19.82855469 5.45160156 18.67773438 5.33007812 C12.06396622 4.57366476 6.22953846 3.35837246 0 1 C0 0.67 0 0.34 0 0 Z " fill="#589156" transform="translate(233,392)"/>
<path d="M0 0 C1.32 0.33 2.64 0.66 4 1 C4 4.3 4 7.6 4 11 C2.02 11 0.04 11 -2 11 C-1.85957123 9.35369672 -1.71250671 7.70795821 -1.5625 6.0625 C-1.48128906 5.14597656 -1.40007813 4.22945313 -1.31640625 3.28515625 C-1 1 -1 1 0 0 Z " fill="#6878A6" transform="translate(737,507)"/>
<path d="M0 0 C2 2 2 2 2.23046875 4.13671875 C2.18627595 6.76016383 2.11021368 9.37848895 2 12 C1.979375 13.258125 1.95875 14.51625 1.9375 15.8125 C0.62028188 20.29104161 -2.0595059 21.76739629 -6 24 C-6.66 23.67 -7.32 23.34 -8 23 C-7.21625 22.278125 -6.4325 21.55625 -5.625 20.8125 C-1.38053257 16.26485632 -0.74562121 12.30274998 -0.375 6.1875 C-0.26285156 4.44533203 -0.26285156 4.44533203 -0.1484375 2.66796875 C-0.09945313 1.78753906 -0.05046875 0.90710938 0 0 Z " fill="#061921" transform="translate(287,398)"/>
<path d="M0 0 C0.66 0.33 1.32 0.66 2 1 C1.0409375 2.1446875 1.0409375 2.1446875 0.0625 3.3125 C-2.818801 7.06692251 -3.18321383 10.08188224 -3.5625 14.6875 C-3.68818359 16.17830078 -3.68818359 16.17830078 -3.81640625 17.69921875 C-3.87699219 18.45847656 -3.93757812 19.21773438 -4 20 C-3.34 20 -2.68 20 -2 20 C-1.71125 20.763125 -1.4225 21.52625 -1.125 22.3125 C-0.03730987 25.15029308 -0.03730987 25.15029308 2 28 C-2.1935044 26.25564313 -3.40197058 24.23931865 -5.234375 20.2109375 C-7.08629877 14.86303519 -6.55427586 10.68446927 -4.125 5.625 C-2.88791344 3.32493535 -1.86781078 1.86781078 0 0 Z " fill="#5A8E58" transform="translate(229,363)"/>
<path d="M0 0 C8.58 0.66 17.16 1.32 26 2 C26 2.66 26 3.32 26 4 C8.61072972 4.3798627 8.61072972 4.3798627 2 2 C1.34 1.34 0.68 0.68 0 0 Z " fill="#538B50" transform="translate(236,424)"/>
<path d="M0 0 C2.39927276 4.24633195 2.31113014 7.1774829 2 12 C1.34 12.66 0.68 13.32 0 14 C0 13.34 0 12.68 0 12 C-0.66 12 -1.32 12 -2 12 C-2 13.98 -2 15.96 -2 18 C-2.66 18 -3.32 18 -4 18 C-3.41632611 11.69632197 -1.95928381 6.01339937 0 0 Z " fill="#091845" transform="translate(740,336)"/>
<path d="M0 0 C0.33 0 0.66 0 1 0 C1.25 6.625 1.25 6.625 -1 10 C-1 10.7425 -1 11.485 -1 12.25 C-1 17.17293323 -2.60764586 21.72793903 -5 26 C-6.07493455 22.72458915 -5.89839854 20.6217379 -5.0390625 17.3046875 C-4.81476562 16.42425781 -4.59046875 15.54382813 -4.359375 14.63671875 C-3.99585938 13.26966797 -3.99585938 13.26966797 -3.625 11.875 C-3.39039063 10.95589844 -3.15578125 10.03679687 -2.9140625 9.08984375 C-1.16919168 2.33838336 -1.16919168 2.33838336 0 0 Z " fill="#213E7C" transform="translate(712,376)"/>
<path d="M0 0 C0.66 0.33 1.32 0.66 2 1 C-1.605251 7.86714477 -8.14986885 12.96661168 -15.2734375 15.953125 C-17.1875 16.5 -17.1875 16.5 -20 17 C-17.10263157 13.82246151 -14.34081272 11.96707884 -10.5 10.0625 C-5.56443966 7.46310489 -2.52567972 5.05135945 0 0 Z " fill="#071D1D" transform="translate(312,432)"/>
<path d="M0 0 C0.33 0.66 0.66 1.32 1 2 C6.94 1.505 6.94 1.505 13 1 C13 1.99 13 2.98 13 4 C7.39 4 1.78 4 -4 4 C-4 3.01 -4 2.02 -4 1 C-2.68 0.67 -1.36 0.34 0 0 Z " fill="#6E82AC" transform="translate(676,540)"/>
<path d="M0 0 C0.33 0 0.66 0 1 0 C1.33868777 2.20751848 1.67071689 4.41605911 2 6.625 C2.185625 7.85476563 2.37125 9.08453125 2.5625 10.3515625 C2.95402516 13.6166027 3.08080924 16.71712451 3 20 C2.34 19.67 1.68 19.34 1 19 C1 16.69 1 14.38 1 12 C0.34 12 -0.32 12 -1 12 C-1.02698189 10.37509046 -1.04638757 8.75005367 -1.0625 7.125 C-1.07410156 6.22007812 -1.08570313 5.31515625 -1.09765625 4.3828125 C-1 2 -1 2 0 0 Z " fill="#27427E" transform="translate(782,420)"/>
<path d="M0 0 C0.99 0 1.98 0 3 0 C2.74411938 2.2517495 2.46972223 4.50140014 2.1875 6.75 C2.03667969 8.00296875 1.88585937 9.2559375 1.73046875 10.546875 C1.0189332 13.91049761 0.29462245 15.51049181 -2 18 C-2.054138 15.75026553 -2.09285491 13.50015617 -2.125 11.25 C-2.14820313 9.99703125 -2.17140625 8.7440625 -2.1953125 7.453125 C-2.01537302 4.27179508 -1.68998582 2.63478104 0 0 Z " fill="#1A264E" transform="translate(721,514)"/>
<path d="M0 0 C0.33 0.66 0.66 1.32 1 2 C1.99 2.33 2.98 2.66 4 3 C4 4.98 4 6.96 4 9 C1.69 8.67 -0.62 8.34 -3 8 C-2.74438677 5.6568787 -2.40729228 3.32156597 -2 1 C-1.34 0.67 -0.68 0.34 0 0 Z " fill="#5B6D98" transform="translate(615,508)"/>
<path d="M0 0 C0.99 0 1.98 0 3 0 C4.53166168 4.08443115 3.63081652 7.79455657 3 12 C2.34 12 1.68 12 1 12 C0.63896464 10.18885568 0.28634496 8.37603177 -0.0625 6.5625 C-0.25972656 5.55316406 -0.45695313 4.54382813 -0.66015625 3.50390625 C-0.77230469 2.67761719 -0.88445313 1.85132813 -1 1 C-0.67 0.67 -0.34 0.34 0 0 Z " fill="#101A41" transform="translate(606,520)"/>
<path d="M0 0 C-2.43030784 1.53351528 -4.86805103 3.05183502 -7.3125 4.5625 C-8.00279297 5.00013672 -8.69308594 5.43777344 -9.40429688 5.88867188 C-10.07138672 6.29794922 -10.73847656 6.70722656 -11.42578125 7.12890625 C-12.34484253 7.70233765 -12.34484253 7.70233765 -13.2824707 8.28735352 C-15 9 -15 9 -18 8 C-16.66144904 5.32289809 -15.27941912 5.04870906 -12.5625 3.875 C-11.75941406 3.52179688 -10.95632813 3.16859375 -10.12890625 2.8046875 C-8 2 -8 2 -6 2 C-6 1.34 -6 0.68 -6 0 C-3 -1 -3 -1 0 0 Z " fill="#5A9256" transform="translate(267,463)"/>
<path d="M0 0 C0.33 0 0.66 0 1 0 C1 1.98 1 3.96 1 6 C7.27 6.66 13.54 7.32 20 8 C20 8.33 20 8.66 20 9 C17.04160645 9.02689449 14.08345573 9.04678741 11.125 9.0625 C9.86236328 9.07506836 9.86236328 9.07506836 8.57421875 9.08789062 C7.76855469 9.09111328 6.96289062 9.09433594 6.1328125 9.09765625 C5.38918457 9.10289307 4.64555664 9.10812988 3.87939453 9.11352539 C2 9 2 9 0 8 C0 5.36 0 2.72 0 0 Z " fill="#223E7E" transform="translate(637,444)"/>
<path d="M0 0 C2.27467581 1.09677235 4.54454524 2.20198422 6.8125 3.3125 C7.45509766 3.62123047 8.09769531 3.92996094 8.75976562 4.24804688 C11.95607616 5.82136035 14.70577107 7.22816208 17 10 C14.6568787 9.74438677 12.32156597 9.40729228 10 9 C9.67 8.34 9.34 7.68 9 7 C7.01751285 6.28293018 5.01584651 5.61709587 3 5 C2.34 4.67 1.68 4.34 1 4 C1.33 3.34 1.66 2.68 2 2 C1.34 2 0.68 2 0 2 C0 1.34 0 0.68 0 0 Z " fill="#08191E" transform="translate(255,327)"/>
<path d="M0 0 C0.33 0 0.66 0 1 0 C2.60671734 6.57293456 1.03358813 11.64647324 -1 18 C-1.33 18 -1.66 18 -2 18 C-1.85946128 15.37461716 -1.71281053 12.74982573 -1.5625 10.125 C-1.52318359 9.37863281 -1.48386719 8.63226563 -1.44335938 7.86328125 C-1.11328125 2.2265625 -1.11328125 2.2265625 0 0 Z " fill="#274683" transform="translate(630,346)"/>
<path d="M0 0 C5.61 0 11.22 0 17 0 C17 0.33 17 0.66 17 1 C5.47835991 3.29612756 5.47835991 3.29612756 0 3 C0 2.01 0 1.02 0 0 Z " fill="#7084B2" transform="translate(584,507)"/>
<path d="M0 0 C0.66 0 1.32 0 2 0 C2.33 5.28 2.66 10.56 3 16 C2.34 15.67 1.68 15.34 1 15 C-0.24024621 10.03901518 -0.10151176 5.07558808 0 0 Z " fill="#051440" transform="translate(745,392)"/>
<path d="M0 0 C0.66 0.33 1.32 0.66 2 1 C0.21190303 2.17213045 -1.58059125 3.33755526 -3.375 4.5 C-4.37273437 5.1496875 -5.37046875 5.799375 -6.3984375 6.46875 C-9 8 -9 8 -11 8 C-11 6.02 -11 4.04 -11 2 C-10.34 2 -9.68 2 -9 2 C-9 2.99 -9 3.98 -9 5 C-8.34 5 -7.68 5 -7 5 C-6.67 4.34 -6.34 3.68 -6 3 C-3.0625 1.3125 -3.0625 1.3125 0 0 Z " fill="#091720" transform="translate(275,442)"/>
<path d="M0 0 C0.33 0 0.66 0 1 0 C1.33 3.96 1.66 7.92 2 12 C0.02 12 -1.96 12 -4 12 C-4 11.34 -4 10.68 -4 10 C-3.34 10 -2.68 10 -2 10 C-2.04125 8.906875 -2.0825 7.81375 -2.125 6.6875 C-2 3 -2 3 0 0 Z " fill="#133C7E" transform="translate(1153,400)"/>
<path d="M0 0 C0.66 0 1.32 0 2 0 C2 2.97 2 5.94 2 9 C7.445 10.485 7.445 10.485 13 12 C8.73286383 13.06678404 6.24522894 13.02199956 2 12 C-0.96981874 8.77193615 -0.13752467 4.12574024 0 0 Z " fill="#5E985B" transform="translate(235,372)"/>
<path d="M0 0 C0 3 0 3 -1.25390625 4.5859375 C-3.11884876 6.09624888 -4.67918175 6.83610572 -6.9375 7.625 C-7.60652344 7.86476563 -8.27554688 8.10453125 -8.96484375 8.3515625 C-10.96183642 8.98784039 -12.96112475 9.51650833 -15 10 C-12.36923129 7.00000059 -9.25820168 5.27617945 -5.8125 3.3125 C-4.72582031 2.68988281 -3.63914063 2.06726563 -2.51953125 1.42578125 C-1.68808594 0.95527344 -0.85664063 0.48476563 0 0 Z " fill="#082122" transform="translate(217,325)"/>
<path d="M0 0 C2.64 0.33 5.28 0.66 8 1 C8 0.67 8 0.34 8 0 C9.98 0 11.96 0 14 0 C14 0.99 14 1.98 14 3 C9.38 3 4.76 3 0 3 C0 2.01 0 1.02 0 0 Z " fill="#798BB6" transform="translate(582,541)"/>
<path d="M0 0 C1.79244141 0.01740234 1.79244141 0.01740234 3.62109375 0.03515625 C5.41740234 0.04869141 5.41740234 0.04869141 7.25 0.0625 C8.17683594 0.07410156 9.10367187 0.08570313 10.05859375 0.09765625 C10.05859375 0.42765625 10.05859375 0.75765625 10.05859375 1.09765625 C6.42859375 1.42765625 2.79859375 1.75765625 -0.94140625 2.09765625 C-1.60140625 4.40765625 -2.26140625 6.71765625 -2.94140625 9.09765625 C-3.27140625 9.09765625 -3.60140625 9.09765625 -3.94140625 9.09765625 C-4.0390625 2.9453125 -4.0390625 2.9453125 -3.94140625 1.09765625 C-2.94140625 0.09765625 -2.94140625 0.09765625 0 0 Z " fill="#5276B3" transform="translate(1157.94140625,432.90234375)"/>
<path d="M0 0 C0.33 0 0.66 0 1 0 C1.18451025 9.41002278 1.18451025 9.41002278 0 14 C-0.66 14 -1.32 14 -2 14 C-2.33 11.36 -2.66 8.72 -3 6 C-2.01 5.67 -1.02 5.34 0 5 C0 3.35 0 1.7 0 0 Z " fill="#07174B" transform="translate(703,408)"/>
<path d="M0 0 C0.66 0.33 1.32 0.66 2 1 C-0.09679104 2.36695222 -2.2010938 3.71846991 -4.3125 5.0625 C-4.90740234 5.45244141 -5.50230469 5.84238281 -6.11523438 6.24414062 C-7.69609635 7.24211495 -9.34594712 8.12868696 -11 9 C-11.99 8.67 -12.98 8.34 -14 8 C-10.375 5 -10.375 5 -7 5 C-7 4.34 -7 3.68 -7 3 C-4.69631264 1.93347808 -2.35981813 0.93578995 0 0 Z " fill="#5B925A" transform="translate(199,334)"/>
<path d="M0 0 C0 0.66 0 1.32 0 2 C-9.41002278 7.37129841 -9.41002278 7.37129841 -14 9 C-14 8.34 -14 7.68 -14 7 C-11.4453125 5.2734375 -11.4453125 5.2734375 -8.125 3.375 C-7.03445312 2.74335938 -5.94390625 2.11171875 -4.8203125 1.4609375 C-2 0 -2 0 0 0 Z " fill="#0A1E20" transform="translate(255,470)"/>
<path d="M0 0 C2.30068498 0.51126333 4.23425103 1.11096101 6.375 2.125 C9.60445918 3.20148639 11.72471261 2.76169474 15 2 C13.38642499 3.95327502 12.07785307 4.96539864 9.75 6 C5.60457643 6 3.00760157 3.72157606 0 1 C0 0.67 0 0.34 0 0 Z " fill="#061C1A" transform="translate(226,461)"/>
<path d="M0 0 C3.96 0 7.92 0 12 0 C12 0.66 12 1.32 12 2 C5.565 2.495 5.565 2.495 -1 3 C-0.67 2.01 -0.34 1.02 0 0 Z " fill="#051A20" transform="translate(272,381)"/>
<path d="M0 0 C0 0.99 0 1.98 0 3 C-2.98055586 5.42603384 -5.00323092 6.91332443 -8.875 7.25 C-9.57625 7.1675 -10.2775 7.085 -11 7 C-7.54319097 4.23455278 -3.85658398 2.15078722 0 0 Z " fill="#071820" transform="translate(266,463)"/>
<path d="M0 0 C4.95 1.98 4.95 1.98 10 4 C6 6 6 6 2 6 C1.34 4.02 0.68 2.04 0 0 Z " fill="#09161F" transform="translate(178,448)"/>
<path d="M0 0 C2 3 2 3 2 5 C2.969375 5.28875 3.93875 5.5775 4.9375 5.875 C8 7 8 7 9 9 C3.6 8.4 3.6 8.4 1.125 6.75 C-0.37422891 4.41786614 -0.22023906 2.71628175 0 0 Z " fill="#061D20" transform="translate(236,374)"/>
<path d="M0 0 C4.39381209 0.50214995 6.83419795 1.92213689 10 5 C10.8125 7.25 10.8125 7.25 11 9 C10.34 9 9.68 9 9 9 C8.38125 7.8553125 8.38125 7.8553125 7.75 6.6875 C5.61384819 3.40698115 3.55420317 2.50066356 0 1 C0 0.67 0 0.34 0 0 Z " fill="#091A20" transform="translate(261,369)"/>
<path d="M0 0 C2.9375 0.375 2.9375 0.375 6 1 C6.33 1.66 6.66 2.32 7 3 C7.99 3.33 8.98 3.66 10 4 C10 4.66 10 5.32 10 6 C10.99 6.33 11.98 6.66 13 7 C12.01 7.495 12.01 7.495 11 8 C8.3984375 6.6015625 8.3984375 6.6015625 5.375 4.625 C4.37210937 3.97789062 3.36921875 3.33078125 2.3359375 2.6640625 C1.56507813 2.11492187 0.79421875 1.56578125 0 1 C0 0.67 0 0.34 0 0 Z " fill="#5D9258" transform="translate(266,332)"/>
<path d="M0 0 C0.99 0 1.98 0 3 0 C2.54663921 4.87362847 1.2910841 7.39042389 -2 11 C-1 3.57142857 -1 3.57142857 0 0 Z " fill="#121B42" transform="translate(614,523)"/>
<path d="M0 0 C0 3.41099168 -0.49145406 6.63088314 -1 10 C-1.99 9.34 -2.98 8.68 -4 8 C-4.6875 4.375 -4.6875 4.375 -5 1 C-3.35 0.67 -1.7 0.34 0 0 Z " fill="#05296A" transform="translate(1113,448)"/>
<path d="M0 0 C1.64936913 0.78427352 3.29441127 1.57765259 4.9375 2.375 C5.85402344 2.81585938 6.77054687 3.25671875 7.71484375 3.7109375 C10 5 10 5 11 7 C6.545 6.01 6.545 6.01 2 5 C2 4.01 2 3.02 2 2 C1.34 2 0.68 2 0 2 C0 1.34 0 0.68 0 0 Z " fill="#589557" transform="translate(296,337)"/>
<path d="M0 0 C-1.05041579 2.86477034 -1.70124563 3.83913226 -4.4375 5.3125 C-7 6 -7 6 -10 5 C-8.71186658 4.16121545 -7.41936744 3.32913217 -6.125 2.5 C-5.40570313 2.0359375 -4.68640625 1.571875 -3.9453125 1.09375 C-2 0 -2 0 0 0 Z " fill="#081720" transform="translate(202,335)"/>
<path d="M0 0 C2.64 0 5.28 0 8 0 C8 2.97 8 5.94 8 9 C7.01 8.67 6.02 8.34 5 8 C5.66 5.69 6.32 3.38 7 1 C4.69 1 2.38 1 0 1 C0 0.67 0 0.34 0 0 Z " fill="#5598EE" transform="translate(1147,450)"/>
<path d="M0 0 C0.66 0 1.32 0 2 0 C0.64978174 4.41889613 -1.26115668 6.34345343 -5 9 C-5.33 8.34 -5.66 7.68 -6 7 C-5.34 7 -4.68 7 -4 7 C-4.33 6.01 -4.66 5.02 -5 4 C-3.68 4 -2.36 4 -1 4 C-0.67 2.68 -0.34 1.36 0 0 Z " fill="#5D9655" transform="translate(310,432)"/>
<path d="M0 0 C0.66 0.33 1.32 0.66 2 1 C1.34 2.65 0.68 4.3 0 6 C-0.66 6 -1.32 6 -2 6 C-2 5.34 -2 4.68 -2 4 C-4.475 5.485 -4.475 5.485 -7 7 C-5.55609075 3.19333016 -3.65047197 1.73397418 0 0 Z " fill="#5B9658" transform="translate(168,340)"/>
<path d="M0 0 C2.51185394 2.1613627 4.50981219 4.01962439 6 7 C2.00499382 5.6302836 -0.80009492 3.74277578 -4 1 C-2.3125 0.1875 -2.3125 0.1875 0 0 Z " fill="#081B24" transform="translate(303,337)"/>
<path d="M0 0 C0.66 0.33 1.32 0.66 2 1 C0.35 1.66 -1.3 2.32 -3 3 C-3 3.66 -3 4.32 -3 5 C-4.8125 6.0625 -4.8125 6.0625 -7 7 C-7.99 6.67 -8.98 6.34 -10 6 C-8.70903219 5.18639005 -7.41720125 4.37414954 -6.125 3.5625 C-5.04605469 2.88380859 -5.04605469 2.88380859 -3.9453125 2.19140625 C-2 1 -2 1 0 0 Z " fill="#599556" transform="translate(210,316)"/>
<path d="M0 0 C0 0.66 0 1.32 0 2 C-2.75078884 2.91692961 -4.35948913 3.10886083 -7.1875 3.0625 C-9.0746875 3.0315625 -9.0746875 3.0315625 -11 3 C-7.11595442 0.41063628 -4.5725325 -0.12358196 0 0 Z " fill="#14214B" transform="translate(743,542)"/>
<path d="M0 0 C0 0.66 0 1.32 0 2 C1.98 2 3.96 2 6 2 C5.67 2.66 5.34 3.32 5 4 C-2.75 3.25 -2.75 3.25 -5 1 C-2 0 -2 0 0 0 Z " fill="#0D2525" transform="translate(192,438)"/>
<path d="M0 0 C0.99 0.33 1.98 0.66 3 1 C4.28317892 4.84953676 4.06643637 7.94738135 4 12 C1.78600697 8.20458337 0.99019802 4.24370579 0 0 Z " fill="#234884" transform="translate(661,385)"/>
<path d="M0 0 C2.29633824 3.44450737 2.54016485 5.93812283 3 10 C2.67 9.34 2.34 8.68 2 8 C1.01 8 0.02 8 -1 8 C-0.67 5.36 -0.34 2.72 0 0 Z " fill="#071945" transform="translate(647,336)"/>
<path d="M0 0 C0 2.97 0 5.94 0 9 C-1.32 8.67 -2.64 8.34 -4 8 C-3.74438677 5.6568787 -3.40729228 3.32156597 -3 1 C-1 0 -1 0 0 0 Z " fill="#092C69" transform="translate(1122,326)"/>
<path d="M0 0 C1.98 0 3.96 0 6 0 C6 0.99 6 1.98 6 3 C6.66 3 7.32 3 8 3 C8 3.66 8 4.32 8 5 C4.62496331 3.8141763 2.35277269 2.72426311 0 0 Z " fill="#041425" transform="translate(176,432)"/>
<path d="M0 0 C0.66 0 1.32 0 2 0 C2.9765625 6.0546875 2.9765625 6.0546875 3 8 C2.34 8.66 1.68 9.32 1 10 C-0.1577506 6.52674819 -0.06866652 3.63932552 0 0 Z " fill="#0F1B42" transform="translate(593,512)"/>
<path d="M0 0 C0.66 0 1.32 0 2 0 C1.67 1.65 1.34 3.3 1 5 C-2.3 4.67 -5.6 4.34 -9 4 C-9 3.67 -9 3.34 -9 3 C-6.03 3 -3.06 3 0 3 C0 2.01 0 1.02 0 0 Z " fill="#528552" transform="translate(283,376)"/>
<path d="M0 0 C-0.33 1.32 -0.66 2.64 -1 4 C-2.32 4.33 -3.64 4.66 -5 5 C-5 4.01 -5 3.02 -5 2 C-2 0 -2 0 0 0 Z " fill="#569D52" transform="translate(189,329)"/>
<path d="M0 0 C3.3 1.65 6.6 3.3 10 5 C7 6 7 6 3.875 4.75 C1 3 1 3 0 0 Z " fill="#091C1A" transform="translate(222,473)"/>
<path d="M0 0 C1.46726798 3.81489674 0.43336419 6.29011622 -1 10 C-1.66 9.34 -2.32 8.68 -3 8 C-3 6.68 -3 5.36 -3 4 C-2.34 3.67 -1.68 3.34 -1 3 C-0.67 2.01 -0.34 1.02 0 0 Z " fill="#1E4589" transform="translate(707,404)"/>
<path d="M0 0 C-0.33 0.99 -0.66 1.98 -1 3 C-1.99 3 -2.98 3 -4 3 C-4.33 3.99 -4.66 4.98 -5 6 C-5.66 6 -6.32 6 -7 6 C-7 5.01 -7 4.02 -7 3 C-2.77777778 0 -2.77777778 0 0 0 Z " fill="#579351" transform="translate(180,334)"/>
</svg>
