<?xml version="1.0" encoding="UTF-8"?>
<svg version="1.1" xmlns="http://www.w3.org/2000/svg" width="225" height="225">
<path d="M0 0 C74.25 0 148.5 0 225 0 C225 74.25 225 148.5 225 225 C150.75 225 76.5 225 0 225 C0 150.75 0 76.5 0 0 Z " fill="#FEFEFE" transform="translate(0,0)"/>
<path d="M0 0 C0.71220703 -0.020625 1.42441406 -0.04125 2.15820312 -0.0625 C6.65681003 -0.09579219 9.69587807 0.31401928 13.1875 3.25 C13.1875 4.24 13.1875 5.23 13.1875 6.25 C14.38375 6.45625 15.58 6.6625 16.8125 6.875 C23.61730837 8.3557263 29.87204457 11.39322215 36.1875 14.25 C35.60826774 18.34686154 34.67926958 21.95693376 33.1875 25.8125 C31.84695437 29.28707598 30.82505092 32.57744107 30.1875 36.25 C31.8375 36.25 33.4875 36.25 35.1875 36.25 C37.1675 30.97 39.1475 25.69 41.1875 20.25 C46.34132998 21.280766 46.95034387 21.70211626 49.921875 25.6328125 C51.33043044 27.51265774 51.33043044 27.51265774 53.9375 29.875 C56.09469832 32.15204267 56.84832634 33.19743703 57.1875 36.25 C57.8475 36.25 58.5075 36.25 59.1875 36.25 C63.83821066 43.98568206 66.83092649 51.5523084 69.1875 60.25 C69.51041016 61.29414062 69.51041016 61.29414062 69.83984375 62.359375 C71.10315514 66.67492049 71.31890641 70.75601958 71.5 75.25 C71.81082356 80.82689191 72.68684897 84.30157617 76.12890625 88.69921875 C77.1875 90.25 77.1875 90.25 77.1875 93.25 C26.3675 93.25 -24.4525 93.25 -76.8125 93.25 C-75.1625 90.28 -73.5125 87.31 -71.8125 84.25 C-70.8225 84.25 -69.8325 84.25 -68.8125 84.25 C-68.85890625 83.05246094 -68.9053125 81.85492188 -68.953125 80.62109375 C-69.40719956 63.89975483 -65.85633192 50.91417674 -57.8125 36.25 C-57.1525 36.25 -56.4925 36.25 -55.8125 36.25 C-55.626875 35.59 -55.44125 34.93 -55.25 34.25 C-53.18114157 29.93238241 -50.07198069 26.72000394 -46.8125 23.25 C-46.32652344 22.65445313 -45.84054688 22.05890625 -45.33984375 21.4453125 C-43.8125 20.25 -43.8125 20.25 -41.828125 20.08984375 C-38.52300383 21.99221001 -37.78751426 25.38433509 -36.5625 28.8125 C-36.294375 29.52341797 -36.02625 30.23433594 -35.75 30.96679688 C-35.0900869 32.72263709 -34.44943359 34.48569397 -33.8125 36.25 C-31.8325 36.25 -29.8525 36.25 -27.8125 36.25 C-28.06644531 35.6209375 -28.32039063 34.991875 -28.58203125 34.34375 C-29.66579078 31.64855776 -30.73960797 28.94953478 -31.8125 26.25 C-32.12058594 25.48945312 -32.42867187 24.72890625 -32.74609375 23.9453125 C-34.12398096 20.45114877 -34.8125 18.05951935 -34.8125 14.25 C-27.93774093 9.87515332 -20.05571375 6.25 -11.8125 6.25 C-11.52375 5.445625 -11.235 4.64125 -10.9375 3.8125 C-8.81670196 -1.01820665 -4.6652175 0.03323396 0 0 Z " fill="#F6AA22" transform="translate(111.8125,59.75)"/>
<path d="M0 0 C21.18345364 -0.070041 42.36688822 -0.12296409 63.55043411 -0.15543652 C73.38603839 -0.17091391 83.22157077 -0.19202009 93.05712891 -0.22631836 C101.62851119 -0.25619402 110.19984142 -0.27556865 118.77127433 -0.28226548 C123.31096321 -0.28618086 127.85050314 -0.2954006 132.39014435 -0.31719017 C136.66152981 -0.33752638 140.93270471 -0.34383963 145.20413399 -0.33932304 C146.77309627 -0.34014953 148.34206547 -0.3461323 149.91098595 -0.35761642 C152.05120772 -0.37251615 154.19063182 -0.36896343 156.33087158 -0.36076355 C158.1283679 -0.36491162 158.1283679 -0.36491162 159.96217728 -0.36914349 C163.29239044 0.03553006 164.7038783 0.5761566 167 3 C167.4375 6.5625 167.4375 6.5625 167 10 C163.38016211 12.41322526 161.73464684 12.25126928 157.42662048 12.25396729 C156.42033839 12.25864726 156.42033839 12.25864726 155.39372736 12.26342177 C153.14122094 12.27141215 150.88898314 12.26507424 148.63647461 12.25878906 C147.02353253 12.26149844 145.41059169 12.26505907 143.7976532 12.26940918 C139.4135081 12.27854105 135.02945694 12.27498584 130.64531016 12.26865101 C126.06314381 12.26359602 121.48098563 12.26828098 116.89881897 12.27142334 C109.20425977 12.27506408 101.50973893 12.27026067 93.81518555 12.26074219 C84.91001181 12.24985357 76.00492961 12.25338573 67.09975809 12.264395 C59.46235428 12.2734602 51.82497808 12.27475703 44.18757063 12.26951766 C39.62233037 12.26639422 35.05713319 12.2659989 30.49189568 12.27259064 C26.20161066 12.27835248 21.91144412 12.27438864 17.62117195 12.26280212 C16.04331789 12.26014946 14.46545392 12.26093091 12.88760376 12.26532745 C10.74039817 12.27076051 8.59357672 12.26397657 6.44639587 12.25396729 C5.24274352 12.25321323 4.03909117 12.25245918 2.7989645 12.25168228 C0 12 0 12 -2 10 C-2.26991906 7.31160615 -2.08737357 4.70858064 -2 2 C-1.34 2 -0.68 2 0 2 C0 1.34 0 0.68 0 0 Z " fill="#7DBCC8" transform="translate(30,153)"/>
<path d="M0 0 C0.33 0 0.66 0 1 0 C1.01417969 0.9178125 1.02835938 1.835625 1.04296875 2.78125 C1.3125423 9.71730448 1.5840205 14.88213384 5.94140625 20.44921875 C7 22 7 22 7 25 C-43.82 25 -94.64 25 -147 25 C-142 16 -142 16 -138 14 C-135.35261154 13.75390434 -135.35261154 13.75390434 -132.27996826 13.75949097 C-131.11331635 13.75674164 -129.94666443 13.75399231 -128.74465942 13.75115967 C-126.8306282 13.7619455 -126.8306282 13.7619455 -124.87792969 13.77294922 C-123.51775114 13.7735135 -122.15757199 13.77319645 -120.7973938 13.77206421 C-117.10761229 13.77149034 -113.41796079 13.7832502 -109.7282095 13.79721212 C-105.87116085 13.80971373 -102.01410924 13.81088953 -98.15704346 13.81326294 C-90.85437546 13.81947938 -83.55176735 13.83589242 -76.24912572 13.85596192 C-67.93481021 13.8783158 -59.62049185 13.88931306 -51.30615377 13.89935279 C-34.20406691 13.92025851 -17.10204207 13.9558405 0 14 C0 9.38 0 4.76 0 0 Z " fill="#F5BB76" transform="translate(182,128)"/>
<path d="M0 0 C0.71220703 -0.020625 1.42441406 -0.04125 2.15820312 -0.0625 C6.65681003 -0.09579219 9.69587807 0.31401928 13.1875 3.25 C13.1875 4.24 13.1875 5.23 13.1875 6.25 C14.1775 6.58 15.1675 6.91 16.1875 7.25 C15.1975 7.25 14.2075 7.25 13.1875 7.25 C13.18972061 7.90954681 13.19194122 8.56909363 13.19422913 9.24862671 C13.21629894 16.09380554 13.23141373 22.93897432 13.24243164 29.78417969 C13.24747017 32.34115001 13.25430107 34.89811743 13.26293945 37.45507812 C13.27502602 41.12370517 13.28073301 44.79229423 13.28515625 48.4609375 C13.29031754 49.60992523 13.29547882 50.75891296 13.30079651 51.94271851 C13.30090981 53.53414169 13.30090981 53.53414169 13.30102539 55.15771484 C13.303246 56.09481293 13.30546661 57.03191101 13.30775452 57.99740601 C13.1875 60.25 13.1875 60.25 12.1875 62.25 C11.5275 62.25 10.8675 62.25 10.1875 62.25 C10.084375 62.86875 9.98125 63.4875 9.875 64.125 C9.1875 66.25 9.1875 66.25 6.1875 68.25 C2.00176024 68.44932094 -1.79825735 68.58808088 -5.8125 67.25 C-5.8125 66.59 -5.8125 65.93 -5.8125 65.25 C-6.43125 64.981875 -7.05 64.71375 -7.6875 64.4375 C-9.8125 63.25 -9.8125 63.25 -11.8125 60.25 C-12.07078552 57.92857361 -12.07078552 57.92857361 -12.08374023 55.16772461 C-12.09392685 54.13332748 -12.10411346 53.09893036 -12.11460876 52.03318787 C-12.11674881 50.91750931 -12.11888885 49.80183075 -12.12109375 48.65234375 C-12.14624324 46.3014297 -12.17164141 43.9505183 -12.19726562 41.59960938 C-12.22608377 37.88403955 -12.25009556 34.16851555 -12.26879883 30.45288086 C-12.29035545 26.87329741 -12.32977739 23.29424543 -12.37109375 19.71484375 C-12.37120956 18.59714096 -12.37132538 17.47943817 -12.3714447 16.3278656 C-12.38478348 15.29662064 -12.39812225 14.26537567 -12.41186523 13.20288086 C-12.41693588 12.29259628 -12.42200653 11.38231171 -12.42723083 10.44444275 C-12.55436966 9.72027664 -12.68150848 8.99611053 -12.8125 8.25 C-13.8025 7.59 -14.7925 6.93 -15.8125 6.25 C-14.4925 6.25 -13.1725 6.25 -11.8125 6.25 C-11.379375 5.0434375 -11.379375 5.0434375 -10.9375 3.8125 C-8.81670196 -1.01820665 -4.6652175 0.03323396 0 0 Z " fill="#FBCC17" transform="translate(111.8125,59.75)"/>
<path d="M0 0 C0.91007812 0.00902344 1.82015625 0.01804687 2.7578125 0.02734375 C3.45648438 0.03894531 4.15515625 0.05054687 4.875 0.0625 C4.875 2.7025 4.875 5.3425 4.875 8.0625 C5.535 8.0625 6.195 8.0625 6.875 8.0625 C7.205 5.7525 7.535 3.4425 7.875 1.0625 C9.525 0.7325 11.175 0.4025 12.875 0.0625 C12.16945932 3.73131155 10.59764494 6.76700534 8.875 10.0625 C4.125 9.1875 4.125 9.1875 1.875 8.0625 C2.205 9.3825 2.535 10.7025 2.875 12.0625 C-3.52596618 12.54559179 -3.52596618 12.54559179 -6.0625 10.5 C-7.47407805 7.26167389 -7.32645347 4.55436021 -7.125 1.0625 C-4.60024538 -0.19987731 -2.81299534 -0.03606404 0 0 Z " fill="#F5CA22" transform="translate(107.125,111.9375)"/>
<path d="M0 0 C3.465 1.98 3.465 1.98 7 4 C6.01 4.495 6.01 4.495 5 5 C4.45667442 6.85183702 4.45667442 6.85183702 4.125 9.0625 C3.16273804 13.90485052 1.35827864 17.67648915 -1 22 C-2.65 21.67 -4.3 21.34 -6 21 C-5.55355616 13.41045469 -2.88499438 6.98360263 0 0 Z " fill="#85BCC0" transform="translate(148,75)"/>
<path d="M0 0 C1.9867494 2.9801241 2.90852573 5.42296075 4 8.8125 C4.33 9.82957031 4.66 10.84664062 5 11.89453125 C5.33 12.91933594 5.66 13.94414063 6 15 C6.66458947 17.0006912 7.33064456 19.00089827 8 21 C6.02 21.33 4.04 21.66 2 22 C-0.73272614 16.02688712 -3.44492632 10.05149029 -6 4 C-4.02 2.68 -2.04 1.36 0 0 Z " fill="#8EBBB6" transform="translate(76,75)"/>
<path d="M0 0 C0.88816406 0.06123047 1.77632812 0.12246094 2.69140625 0.18554688 C4.87907044 0.33844814 7.06453442 0.50622446 9.25 0.6875 C9.58 1.3475 9.91 2.0075 10.25 2.6875 C8.98542969 2.65269531 7.72085938 2.61789063 6.41796875 2.58203125 C4.75782577 2.55389323 3.09766844 2.52659309 1.4375 2.5 C0.60412109 2.47486328 -0.22925781 2.44972656 -1.08789062 2.42382812 C-1.89033203 2.41416016 -2.69277344 2.40449219 -3.51953125 2.39453125 C-4.25792236 2.3788208 -4.99631348 2.36311035 -5.75708008 2.34692383 C-8.31017701 2.78323036 -9.14457619 3.70042193 -10.75 5.6875 C-11.08 6.3475 -11.41 7.0075 -11.75 7.6875 C-13.07 7.3575 -14.39 7.0275 -15.75 6.6875 C-12.51442395 -1.13180878 -7.50697631 -0.62650541 0 0 Z " fill="#FAF7D3" transform="translate(111.75,58.3125)"/>
<path d="M0 0 C2.31 0.66 4.62 1.32 7 2 C7 3.65 7 5.3 7 7 C4.69 7.33 2.38 7.66 0 8 C0 5.36 0 2.72 0 0 Z " fill="#F2AC34" transform="translate(127,104)"/>
<path d="M0 0 C1.32 0 2.64 0 4 0 C4 4 4 4 3 7 C0.03 6.01 -2.94 5.02 -6 4 C-6 3.01 -6 2.02 -6 1 C-3.03 1.495 -3.03 1.495 0 2 C0 1.34 0 0.68 0 0 Z " fill="#FAF6E7" transform="translate(140,65)"/>
<path d="M0 0 C0 0.66 0 1.32 0 2 C-2.97851562 2.34179688 -2.97851562 2.34179688 -5.95703125 2.68359375 C-8.19396393 2.97170735 -8.19396393 2.97170735 -11 4 C-11 4.66 -11 5.32 -11 6 C-10.01 6.33 -9.02 6.66 -8 7 C-9.32 7.33 -10.64 7.66 -12 8 C-12 7.34 -12 6.68 -12 6 C-13.32 5.67 -14.64 5.34 -16 5 C-14.68 5 -13.36 5 -12 5 C-11.566875 3.7934375 -11.566875 3.7934375 -11.125 2.5625 C-8.84580295 -2.62900438 -4.80979852 -0.69819656 0 0 Z " fill="#F8CC32" transform="translate(112,61)"/>
<path d="M0 0 C1.32 0 2.64 0 4 0 C4.125 7.75 4.125 7.75 3 10 C2.34 10 1.68 10 1 10 C-0.60725635 6.78548731 -0.05748185 3.56387464 0 0 Z " fill="#F5C729" transform="translate(121,112)"/>
<path d="M0 0 C0.66 0 1.32 0 2 0 C2 1.98 2 3.96 2 6 C2.66 6 3.32 6 4 6 C4 5.34 4 4.68 4 4 C4.66 4 5.32 4 6 4 C5.4140625 10.15234375 5.4140625 10.15234375 5 12 C4.01 12.495 4.01 12.495 3 13 C3 11.68 3 10.36 3 9 C2.34 9 1.68 9 1 9 C-0.4783226 6.04335481 -0.06032783 3.25770263 0 0 Z " fill="#F9A715" transform="translate(79,76)"/>
<path d="M0 0 C6.0546875 -0.1953125 6.0546875 -0.1953125 8 0 C8.66 0.66 9.32 1.32 10 2 C8.3789897 2.69685498 6.75303934 3.38222861 5.125 4.0625 C4.22007813 4.44535156 3.31515625 4.82820313 2.3828125 5.22265625 C0 6 0 6 -2 5 C-1.34 4.01 -0.68 3.02 0 2 C0 1.34 0 0.68 0 0 Z " fill="#FCF9F3" transform="translate(88,64)"/>
<path d="M0 0 C2.0625 2.1875 2.0625 2.1875 4 5 C3.75 7.8125 3.75 7.8125 3 10 C2.34 10 1.68 10 1 10 C1 9.34 1 8.68 1 8 C0.34 8 -0.32 8 -1 8 C-1.04241723 5.66705225 -1.04092937 3.33297433 -1 1 C-0.67 0.67 -0.34 0.34 0 0 Z " fill="#7ABECE" transform="translate(75,77)"/>
<path d="M0 0 C0 0.66 0 1.32 0 2 C0.99 2.33 1.98 2.66 3 3 C2.360625 3.12375 1.72125 3.2475 1.0625 3.375 C0.381875 3.58125 -0.29875 3.7875 -1 4 C-1.33 4.66 -1.66 5.32 -2 6 C-2 5.34 -2 4.68 -2 4 C-2.66 4 -3.32 4 -4 4 C-4 5.98 -4 7.96 -4 10 C-5.76462683 6.91190305 -6 5.76687864 -6 2 C-3 0 -3 0 0 0 Z " fill="#EDAE2D" transform="translate(83,72)"/>
<path d="M0 0 C1.32 0.33 2.64 0.66 4 1 C4.33 6.28 4.66 11.56 5 17 C3.14170149 13.28340297 2.26044439 10.27474722 1.375 6.25 C1.11460937 5.07953125 0.85421875 3.9090625 0.5859375 2.703125 C0.39257812 1.81109375 0.19921875 0.9190625 0 0 Z " fill="#FAF2E6" transform="translate(177,107)"/>
<path d="M0 0 C3 1 3 1 5 3 C5.7734375 3.7115625 5.7734375 3.7115625 6.5625 4.4375 C8 6 8 6 9 9 C5.45529741 8.70460812 4.21784705 8.22373481 1.6875 5.625 C0 3 0 3 0 0 Z " fill="#F9F6E7" transform="translate(159,80)"/>
<path d="M0 0 C2.29141286 -0.05384521 4.58318188 -0.09272087 6.875 -0.125 C8.78925781 -0.15980469 8.78925781 -0.15980469 10.7421875 -0.1953125 C14 0 14 0 16 2 C15 3 15 3 12.93359375 3.09765625 C12.10988281 3.08605469 11.28617188 3.07445312 10.4375 3.0625 C9.61121094 3.05347656 8.78492187 3.04445312 7.93359375 3.03515625 C7.29550781 3.02355469 6.65742187 3.01195312 6 3 C6 2.34 6 1.68 6 1 C4.02 1 2.04 1 0 1 C0 0.67 0 0.34 0 0 Z " fill="#F5C90F" transform="translate(106,60)"/>
<path d="M0 0 C0.99 0.33 1.98 0.66 3 1 C3 5.62 3 10.24 3 15 C1.1155829 11.2311658 0.66570538 9.31987525 0.375 5.25 C0.30023438 4.26515625 0.22546875 3.2803125 0.1484375 2.265625 C0.09945312 1.51796875 0.05046875 0.7703125 0 0 Z " fill="#F9A815" transform="translate(179,125)"/>
<path d="M0 0 C2.09715785 3.14573677 2.52004559 5.01456251 3.125 8.6875 C3.29257813 9.68136719 3.46015625 10.67523438 3.6328125 11.69921875 C3.75398437 12.45847656 3.87515625 13.21773437 4 14 C3.01 13.67 2.02 13.34 1 13 C1 11.35 1 9.7 1 8 C0.34 8 -0.32 8 -1 8 C-0.67 5.36 -0.34 2.72 0 0 Z " fill="#EEAF2A" transform="translate(178,112)"/>
<path d="M0 0 C2.125 0.375 2.125 0.375 4 1 C4.66 3.31 5.32 5.62 6 8 C5.34 8 4.68 8 4 8 C4 7.34 4 6.68 4 6 C3.01 5.67 2.02 5.34 1 5 C0.67 4.34 0.34 3.68 0 3 C-0.66 2.67 -1.32 2.34 -2 2 C-1.34 1.34 -0.68 0.68 0 0 Z " fill="#EFAE31" transform="translate(68,80)"/>
<path d="M0 0 C1.32 0.66 2.64 1.32 4 2 C2.02 4.31 0.04 6.62 -2 9 C-2.66 8.67 -3.32 8.34 -4 8 C-3.42655063 5.13275314 -3.1385485 4.1385485 -1 2 C-0.67 1.34 -0.34 0.68 0 0 Z " fill="#F9F9F2" transform="translate(60,83)"/>
<path d="M0 0 C0.99 0.33 1.98 0.66 3 1 C3 1.99 3 2.98 3 4 C3.99 4.33 4.98 4.66 6 5 C5.01 5 4.02 5 3 5 C2.67 6.32 2.34 7.64 2 9 C0.4375 7.3125 0.4375 7.3125 -1 5 C-0.6875 2.25 -0.6875 2.25 0 0 Z " fill="#F6CE2C" transform="translate(122,62)"/>
<path d="M0 0 C0.66 0 1.32 0 2 0 C2.33 1.65 2.66 3.3 3 5 C2.34 5 1.68 5 1 5 C1 5.66 1 6.32 1 7 C0.01 7.33 -0.98 7.66 -2 8 C-2.66 6.02 -3.32 4.04 -4 2 C-3.34 2 -2.68 2 -2 2 C-1.67 2.99 -1.34 3.98 -1 5 C-0.67 3.35 -0.34 1.7 0 0 Z " fill="#E9AB2D" transform="translate(84,83)"/>
<path d="M0 0 C4.46997391 2.42655726 8.67440245 5.34880489 11 10 C6.56156561 8.60506348 4.0565036 6.48101799 1 3 C0.67 2.01 0.34 1.02 0 0 Z " fill="#EFB42F" transform="translate(155,80)"/>
<path d="M0 0 C-0.33 0.99 -0.66 1.98 -1 3 C-2.65 3 -4.3 3 -6 3 C-6 3.66 -6 4.32 -6 5 C-7.65 4.67 -9.3 4.34 -11 4 C-10 2 -10 2 -7.1875 0.875 C-4 0 -4 0 0 0 Z " fill="#F3B12F" transform="translate(94,68)"/>
<path d="M0 0 C0.66 0 1.32 0 2 0 C2.33 2.64 2.66 5.28 3 8 C2.01 8 1.02 8 0 8 C-0.79953138 4.71303767 -1.09658936 3.28976808 0 0 Z " fill="#F0AB2E" transform="translate(97,112)"/>
<path d="M0 0 C0.66 0 1.32 0 2 0 C2 1.98 2 3.96 2 6 C0.35 6.66 -1.3 7.32 -3 8 C-1.125 1.125 -1.125 1.125 0 0 Z " fill="#F2AD2E" transform="translate(50,104)"/>
<path d="M0 0 C0.66 0.99 1.32 1.98 2 3 C1 5 1 5 -1 7 C-1.66 7.99 -2.32 8.98 -3 10 C-3.33 7.36 -3.66 4.72 -4 2 C-3.67 2.66 -3.34 3.32 -3 4 C-2.34 3.67 -1.68 3.34 -1 3 C-0.67 2.01 -0.34 1.02 0 0 Z " fill="#8DB8B9" transform="translate(79,83)"/>
<path d="M0 0 C2.475 0.99 2.475 0.99 5 2 C4.67 2.99 4.34 3.98 4 5 C2.35 5.33 0.7 5.66 -1 6 C-0.67 4.02 -0.34 2.04 0 0 Z " fill="#FAFAF1" transform="translate(42,108)"/>
<path d="M0 0 C0.99 0.33 1.98 0.66 3 1 C2.67 1.66 2.34 2.32 2 3 C1.34 3 0.68 3 0 3 C-0.66 4.98 -1.32 6.96 -2 9 C-2.33 9 -2.66 9 -3 9 C-3.26218749 5.85375007 -3.24754367 4.38162983 -1.5 1.6875 C-1.005 1.130625 -0.51 0.57375 0 0 Z " fill="#F9F1DD" transform="translate(54,93)"/>
<path d="M0 0 C0.66 0 1.32 0 2 0 C1.375 1.9375 1.375 1.9375 0 4 C-3.125 4.75 -3.125 4.75 -6 5 C-5.67 4.01 -5.34 3.02 -5 2 C-3.35 2 -1.7 2 0 2 C0 1.34 0 0.68 0 0 Z " fill="#FAC01E" transform="translate(120,123)"/>
<path d="M0 0 C0.82638376 2.89234315 1 4.88742431 1 8 C-3.875 6.25 -3.875 6.25 -5 4 C-4.01 4 -3.02 4 -2 4 C-1.34 2.68 -0.68 1.36 0 0 Z " fill="#DBAE43" transform="translate(149,92)"/>
<path d="M0 0 C0.66 0.33 1.32 0.66 2 1 C2.33 1.99 2.66 2.98 3 4 C4.32 4 5.64 4 7 4 C7 4.66 7 5.32 7 6 C5.02 6 3.04 6 1 6 C1 5.34 1 4.68 1 4 C0.34 4 -0.32 4 -1 4 C-0.67 2.68 -0.34 1.36 0 0 Z " fill="#D8AF43" transform="translate(75,92)"/>
<path d="M0 0 C1.5625 1.25 1.5625 1.25 3 3 C2.6875 5.1875 2.6875 5.1875 2 7 C2 6.34 2 5.68 2 5 C0.68 5.33 -0.64 5.66 -2 6 C-1.125 1.125 -1.125 1.125 0 0 Z " fill="#77BFCD" transform="translate(79,87)"/>
<path d="M0 0 C2.97 0.495 2.97 0.495 6 1 C1.25 4.875 1.25 4.875 -1 6 C-0.67 4.02 -0.34 2.04 0 0 Z " fill="#F6F8F0" transform="translate(73,72)"/>
<path d="M0 0 C2.97 0 5.94 0 9 0 C8.34 1.32 7.68 2.64 7 4 C4.69 3.34 2.38 2.68 0 2 C0 1.34 0 0.68 0 0 Z " fill="#FCF5E1" transform="translate(125,64)"/>
</svg>
